<mxfile host="65bd71144e">
    <diagram id="qtx_11w7uXkCz8nPpPGO" name="Page-1">
        <mxGraphModel dx="902" dy="590" grid="0" gridSize="10" guides="1" tooltips="1" connect="1" arrows="1" fold="1" page="1" pageScale="1" pageWidth="4681" pageHeight="3300" math="0" shadow="0">
            <root>
                <mxCell id="0"/>
                <mxCell id="1" parent="0"/>
                <mxCell id="458" value="3" style="ellipse;whiteSpace=wrap;html=1;aspect=fixed;fontFamily=Helvetica;fontSize=16;sketch=1;curveFitting=1;jiggle=2;" parent="1" vertex="1">
                    <mxGeometry x="2396" y="2417" width="50" height="50" as="geometry"/>
                </mxCell>
                <mxCell id="151" value="" style="rounded=0;whiteSpace=wrap;html=1;sketch=1;hachureGap=4;jiggle=2;curveFitting=1;fontFamily=Helvetica;fontSize=20;fillColor=none;" parent="1" vertex="1">
                    <mxGeometry x="500" y="1099" width="243" height="278" as="geometry"/>
                </mxCell>
                <mxCell id="148" value="" style="rounded=0;whiteSpace=wrap;html=1;sketch=1;hachureGap=4;jiggle=2;curveFitting=1;fontFamily=Helvetica;fontSize=20;fillColor=none;" parent="1" vertex="1">
                    <mxGeometry x="229" y="1099" width="250" height="278" as="geometry"/>
                </mxCell>
                <mxCell id="2" style="edgeStyle=none;html=1;entryX=0.728;entryY=0.076;entryDx=0;entryDy=0;entryPerimeter=0;fontFamily=Helvetica;fontSize=16;sketch=1;curveFitting=1;jiggle=2;" parent="1" source="4" target="7" edge="1">
                    <mxGeometry relative="1" as="geometry"/>
                </mxCell>
                <mxCell id="3" style="edgeStyle=none;html=1;entryX=0.309;entryY=0.043;entryDx=0;entryDy=0;entryPerimeter=0;fontFamily=Helvetica;fontSize=16;sketch=1;curveFitting=1;jiggle=2;" parent="1" source="4" target="10" edge="1">
                    <mxGeometry relative="1" as="geometry"/>
                </mxCell>
                <mxCell id="19" value="" style="edgeStyle=none;hachureGap=4;html=1;fontFamily=Architects Daughter;fontSource=https%3A%2F%2Ffonts.googleapis.com%2Fcss%3Ffamily%3DArchitects%2BDaughter;fontSize=16;sketch=1;curveFitting=1;jiggle=2;" parent="1" source="4" target="18" edge="1">
                    <mxGeometry relative="1" as="geometry"/>
                </mxCell>
                <mxCell id="4" value="1" style="ellipse;whiteSpace=wrap;html=1;aspect=fixed;fontFamily=Helvetica;fontSize=16;sketch=1;curveFitting=1;jiggle=2;" parent="1" vertex="1">
                    <mxGeometry x="445" y="110" width="50" height="50" as="geometry"/>
                </mxCell>
                <mxCell id="5" style="edgeStyle=none;html=1;entryX=0.267;entryY=0.019;entryDx=0;entryDy=0;fontFamily=Helvetica;fontSize=16;entryPerimeter=0;sketch=1;curveFitting=1;jiggle=2;" parent="1" source="7" target="12" edge="1">
                    <mxGeometry relative="1" as="geometry"/>
                </mxCell>
                <mxCell id="6" style="edgeStyle=none;html=1;entryX=0.685;entryY=0.063;entryDx=0;entryDy=0;fontFamily=Helvetica;fontSize=16;entryPerimeter=0;sketch=1;curveFitting=1;jiggle=2;" parent="1" source="7" target="11" edge="1">
                    <mxGeometry relative="1" as="geometry"/>
                </mxCell>
                <mxCell id="7" value="2" style="ellipse;whiteSpace=wrap;html=1;aspect=fixed;fontFamily=Helvetica;fontSize=16;sketch=1;curveFitting=1;jiggle=2;" parent="1" vertex="1">
                    <mxGeometry x="355" y="191" width="50" height="50" as="geometry"/>
                </mxCell>
                <mxCell id="8" style="edgeStyle=none;html=1;fontFamily=Helvetica;fontSize=16;sketch=1;curveFitting=1;jiggle=2;" parent="1" source="10" target="13" edge="1">
                    <mxGeometry relative="1" as="geometry"/>
                </mxCell>
                <mxCell id="9" style="edgeStyle=none;html=1;fontFamily=Helvetica;fontSize=16;sketch=1;curveFitting=1;jiggle=2;" parent="1" source="10" target="14" edge="1">
                    <mxGeometry relative="1" as="geometry">
                        <mxPoint x="565" y="260" as="targetPoint"/>
                    </mxGeometry>
                </mxCell>
                <mxCell id="10" value="5" style="ellipse;whiteSpace=wrap;html=1;aspect=fixed;fontFamily=Helvetica;fontSize=16;sketch=1;curveFitting=1;jiggle=2;" parent="1" vertex="1">
                    <mxGeometry x="525" y="191" width="50" height="50" as="geometry"/>
                </mxCell>
                <mxCell id="20" style="edgeStyle=none;hachureGap=4;html=1;fontFamily=Architects Daughter;fontSource=https%3A%2F%2Ffonts.googleapis.com%2Fcss%3Ffamily%3DArchitects%2BDaughter;fontSize=16;sketch=1;curveFitting=1;jiggle=2;" parent="1" source="11" target="16" edge="1">
                    <mxGeometry relative="1" as="geometry"/>
                </mxCell>
                <mxCell id="21" style="edgeStyle=none;hachureGap=4;html=1;entryX=0.284;entryY=0.058;entryDx=0;entryDy=0;entryPerimeter=0;fontFamily=Architects Daughter;fontSource=https%3A%2F%2Ffonts.googleapis.com%2Fcss%3Ffamily%3DArchitects%2BDaughter;fontSize=16;sketch=1;curveFitting=1;jiggle=2;" parent="1" source="11" target="17" edge="1">
                    <mxGeometry relative="1" as="geometry"/>
                </mxCell>
                <mxCell id="11" value="6" style="ellipse;whiteSpace=wrap;html=1;aspect=fixed;fontFamily=Helvetica;fontSize=16;sketch=1;curveFitting=1;jiggle=2;" parent="1" vertex="1">
                    <mxGeometry x="305" y="275" width="50" height="50" as="geometry"/>
                </mxCell>
                <mxCell id="12" value="7" style="ellipse;whiteSpace=wrap;html=1;aspect=fixed;fontFamily=Helvetica;fontSize=16;sketch=1;curveFitting=1;jiggle=2;" parent="1" vertex="1">
                    <mxGeometry x="405" y="275" width="50" height="50" as="geometry"/>
                </mxCell>
                <mxCell id="23" style="edgeStyle=none;hachureGap=4;html=1;entryX=0.68;entryY=0.007;entryDx=0;entryDy=0;entryPerimeter=0;fontFamily=Architects Daughter;fontSource=https%3A%2F%2Ffonts.googleapis.com%2Fcss%3Ffamily%3DArchitects%2BDaughter;fontSize=16;sketch=1;curveFitting=1;jiggle=2;" parent="1" source="13" target="22" edge="1">
                    <mxGeometry relative="1" as="geometry"/>
                </mxCell>
                <mxCell id="13" value="8" style="ellipse;whiteSpace=wrap;html=1;aspect=fixed;fontFamily=Helvetica;fontSize=16;sketch=1;curveFitting=1;jiggle=2;" parent="1" vertex="1">
                    <mxGeometry x="485" y="275" width="50" height="50" as="geometry"/>
                </mxCell>
                <mxCell id="27" value="" style="edgeStyle=none;hachureGap=4;html=1;fontFamily=Architects Daughter;fontSource=https%3A%2F%2Ffonts.googleapis.com%2Fcss%3Ffamily%3DArchitects%2BDaughter;fontSize=16;sketch=1;curveFitting=1;jiggle=2;" parent="1" source="14" target="26" edge="1">
                    <mxGeometry relative="1" as="geometry"/>
                </mxCell>
                <mxCell id="29" style="edgeStyle=none;hachureGap=4;html=1;entryX=0.5;entryY=0;entryDx=0;entryDy=0;fontFamily=Architects Daughter;fontSource=https%3A%2F%2Ffonts.googleapis.com%2Fcss%3Ffamily%3DArchitects%2BDaughter;fontSize=16;sketch=1;curveFitting=1;jiggle=2;" parent="1" source="14" target="25" edge="1">
                    <mxGeometry relative="1" as="geometry"/>
                </mxCell>
                <mxCell id="30" style="edgeStyle=none;hachureGap=4;html=1;entryX=0.747;entryY=0.02;entryDx=0;entryDy=0;fontFamily=Architects Daughter;fontSource=https%3A%2F%2Ffonts.googleapis.com%2Fcss%3Ffamily%3DArchitects%2BDaughter;fontSize=16;entryPerimeter=0;sketch=1;curveFitting=1;jiggle=2;" parent="1" source="14" target="24" edge="1">
                    <mxGeometry relative="1" as="geometry"/>
                </mxCell>
                <mxCell id="14" value="9" style="ellipse;whiteSpace=wrap;html=1;aspect=fixed;fontFamily=Helvetica;fontSize=16;sketch=1;curveFitting=1;jiggle=2;" parent="1" vertex="1">
                    <mxGeometry x="595" y="275" width="50" height="50" as="geometry"/>
                </mxCell>
                <mxCell id="16" value="10" style="ellipse;whiteSpace=wrap;html=1;aspect=fixed;fontFamily=Helvetica;fontSize=16;sketch=1;curveFitting=1;jiggle=2;" parent="1" vertex="1">
                    <mxGeometry x="265" y="365" width="50" height="50" as="geometry"/>
                </mxCell>
                <mxCell id="17" value="11" style="ellipse;whiteSpace=wrap;html=1;aspect=fixed;fontFamily=Helvetica;fontSize=16;sketch=1;curveFitting=1;jiggle=2;" parent="1" vertex="1">
                    <mxGeometry x="345" y="365" width="50" height="50" as="geometry"/>
                </mxCell>
                <mxCell id="18" value="4" style="ellipse;whiteSpace=wrap;html=1;aspect=fixed;fontFamily=Helvetica;fontSize=16;sketch=1;curveFitting=1;jiggle=2;" parent="1" vertex="1">
                    <mxGeometry x="445" y="191" width="50" height="50" as="geometry"/>
                </mxCell>
                <mxCell id="22" value="12" style="ellipse;whiteSpace=wrap;html=1;aspect=fixed;fontFamily=Helvetica;fontSize=16;sketch=1;curveFitting=1;jiggle=2;" parent="1" vertex="1">
                    <mxGeometry x="455" y="365" width="50" height="50" as="geometry"/>
                </mxCell>
                <mxCell id="24" value="13" style="ellipse;whiteSpace=wrap;html=1;aspect=fixed;fontFamily=Helvetica;fontSize=16;sketch=1;curveFitting=1;jiggle=2;" parent="1" vertex="1">
                    <mxGeometry x="535" y="365" width="50" height="50" as="geometry"/>
                </mxCell>
                <mxCell id="25" value="14" style="ellipse;whiteSpace=wrap;html=1;aspect=fixed;fontFamily=Helvetica;fontSize=16;sketch=1;curveFitting=1;jiggle=2;" parent="1" vertex="1">
                    <mxGeometry x="595" y="365" width="50" height="50" as="geometry"/>
                </mxCell>
                <mxCell id="26" value="15" style="ellipse;whiteSpace=wrap;html=1;aspect=fixed;fontFamily=Helvetica;fontSize=16;sketch=1;curveFitting=1;jiggle=2;" parent="1" vertex="1">
                    <mxGeometry x="655" y="365" width="50" height="50" as="geometry"/>
                </mxCell>
                <mxCell id="60" value="" style="rounded=0;whiteSpace=wrap;html=1;sketch=1;hachureGap=4;jiggle=2;curveFitting=1;fontFamily=Helvetica;fontSize=14;fillColor=none;" parent="1" vertex="1">
                    <mxGeometry x="308" y="624" width="310" height="60" as="geometry"/>
                </mxCell>
                <mxCell id="61" value="" style="rounded=0;whiteSpace=wrap;html=1;sketch=1;hachureGap=4;jiggle=2;curveFitting=1;fontFamily=Helvetica;fontSize=14;fillColor=none;" parent="1" vertex="1">
                    <mxGeometry x="398" y="543" width="140" height="60" as="geometry"/>
                </mxCell>
                <mxCell id="62" value="" style="rounded=0;whiteSpace=wrap;html=1;sketch=1;hachureGap=4;jiggle=2;curveFitting=1;fontFamily=Helvetica;fontSize=14;fillColor=none;" parent="1" vertex="1">
                    <mxGeometry x="208" y="798" width="540" height="60" as="geometry"/>
                </mxCell>
                <mxCell id="63" value="" style="rounded=0;whiteSpace=wrap;html=1;sketch=1;hachureGap=4;jiggle=2;curveFitting=1;fontFamily=Helvetica;fontSize=14;fillColor=none;" parent="1" vertex="1">
                    <mxGeometry x="258" y="708" width="430" height="60" as="geometry"/>
                </mxCell>
                <mxCell id="64" style="edgeStyle=none;html=1;entryX=0.728;entryY=0.076;entryDx=0;entryDy=0;entryPerimeter=0;fontFamily=Helvetica;fontSize=16;sketch=1;curveFitting=1;jiggle=2;" parent="1" source="67" target="70" edge="1">
                    <mxGeometry relative="1" as="geometry"/>
                </mxCell>
                <mxCell id="65" style="edgeStyle=none;html=1;entryX=0.309;entryY=0.043;entryDx=0;entryDy=0;entryPerimeter=0;fontFamily=Helvetica;fontSize=16;sketch=1;curveFitting=1;jiggle=2;" parent="1" source="67" target="73" edge="1">
                    <mxGeometry relative="1" as="geometry"/>
                </mxCell>
                <mxCell id="66" value="" style="edgeStyle=none;hachureGap=4;html=1;fontFamily=Architects Daughter;fontSource=https%3A%2F%2Ffonts.googleapis.com%2Fcss%3Ffamily%3DArchitects%2BDaughter;fontSize=16;sketch=1;curveFitting=1;jiggle=2;" parent="1" source="67" target="86" edge="1">
                    <mxGeometry relative="1" as="geometry"/>
                </mxCell>
                <mxCell id="67" value="1" style="ellipse;whiteSpace=wrap;html=1;aspect=fixed;fontFamily=Helvetica;fontSize=16;sketch=1;curveFitting=1;jiggle=2;" parent="1" vertex="1">
                    <mxGeometry x="473" y="548" width="50" height="50" as="geometry"/>
                </mxCell>
                <mxCell id="68" style="edgeStyle=none;html=1;entryX=0.267;entryY=0.019;entryDx=0;entryDy=0;fontFamily=Helvetica;fontSize=16;entryPerimeter=0;sketch=1;curveFitting=1;jiggle=2;" parent="1" source="70" target="77" edge="1">
                    <mxGeometry relative="1" as="geometry"/>
                </mxCell>
                <mxCell id="69" style="edgeStyle=none;html=1;entryX=0.685;entryY=0.063;entryDx=0;entryDy=0;fontFamily=Helvetica;fontSize=16;entryPerimeter=0;sketch=1;curveFitting=1;jiggle=2;" parent="1" source="70" target="76" edge="1">
                    <mxGeometry relative="1" as="geometry"/>
                </mxCell>
                <mxCell id="70" value="2" style="ellipse;whiteSpace=wrap;html=1;aspect=fixed;fontFamily=Helvetica;fontSize=16;sketch=1;curveFitting=1;jiggle=2;" parent="1" vertex="1">
                    <mxGeometry x="383" y="629" width="50" height="50" as="geometry"/>
                </mxCell>
                <mxCell id="71" style="edgeStyle=none;html=1;fontFamily=Helvetica;fontSize=16;sketch=1;curveFitting=1;jiggle=2;" parent="1" source="73" target="79" edge="1">
                    <mxGeometry relative="1" as="geometry"/>
                </mxCell>
                <mxCell id="72" style="edgeStyle=none;html=1;fontFamily=Helvetica;fontSize=16;sketch=1;curveFitting=1;jiggle=2;" parent="1" source="73" target="83" edge="1">
                    <mxGeometry relative="1" as="geometry">
                        <mxPoint x="593" y="698" as="targetPoint"/>
                    </mxGeometry>
                </mxCell>
                <mxCell id="73" value="5" style="ellipse;whiteSpace=wrap;html=1;aspect=fixed;fontFamily=Helvetica;fontSize=16;sketch=1;curveFitting=1;jiggle=2;" parent="1" vertex="1">
                    <mxGeometry x="553" y="629" width="50" height="50" as="geometry"/>
                </mxCell>
                <mxCell id="74" style="edgeStyle=none;hachureGap=4;html=1;fontFamily=Architects Daughter;fontSource=https%3A%2F%2Ffonts.googleapis.com%2Fcss%3Ffamily%3DArchitects%2BDaughter;fontSize=16;sketch=1;curveFitting=1;jiggle=2;" parent="1" source="76" target="84" edge="1">
                    <mxGeometry relative="1" as="geometry"/>
                </mxCell>
                <mxCell id="75" style="edgeStyle=none;hachureGap=4;html=1;entryX=0.284;entryY=0.058;entryDx=0;entryDy=0;entryPerimeter=0;fontFamily=Architects Daughter;fontSource=https%3A%2F%2Ffonts.googleapis.com%2Fcss%3Ffamily%3DArchitects%2BDaughter;fontSize=16;sketch=1;curveFitting=1;jiggle=2;" parent="1" source="76" target="85" edge="1">
                    <mxGeometry relative="1" as="geometry"/>
                </mxCell>
                <mxCell id="76" value="6" style="ellipse;whiteSpace=wrap;html=1;aspect=fixed;fontFamily=Helvetica;fontSize=16;sketch=1;curveFitting=1;jiggle=2;" parent="1" vertex="1">
                    <mxGeometry x="333" y="713" width="50" height="50" as="geometry"/>
                </mxCell>
                <mxCell id="77" value="7" style="ellipse;whiteSpace=wrap;html=1;aspect=fixed;fontFamily=Helvetica;fontSize=16;sketch=1;curveFitting=1;jiggle=2;" parent="1" vertex="1">
                    <mxGeometry x="433" y="713" width="50" height="50" as="geometry"/>
                </mxCell>
                <mxCell id="78" style="edgeStyle=none;hachureGap=4;html=1;entryX=0.68;entryY=0.007;entryDx=0;entryDy=0;entryPerimeter=0;fontFamily=Architects Daughter;fontSource=https%3A%2F%2Ffonts.googleapis.com%2Fcss%3Ffamily%3DArchitects%2BDaughter;fontSize=16;sketch=1;curveFitting=1;jiggle=2;" parent="1" source="79" target="87" edge="1">
                    <mxGeometry relative="1" as="geometry"/>
                </mxCell>
                <mxCell id="79" value="8" style="ellipse;whiteSpace=wrap;html=1;aspect=fixed;fontFamily=Helvetica;fontSize=16;sketch=1;curveFitting=1;jiggle=2;" parent="1" vertex="1">
                    <mxGeometry x="513" y="713" width="50" height="50" as="geometry"/>
                </mxCell>
                <mxCell id="80" value="" style="edgeStyle=none;hachureGap=4;html=1;fontFamily=Architects Daughter;fontSource=https%3A%2F%2Ffonts.googleapis.com%2Fcss%3Ffamily%3DArchitects%2BDaughter;fontSize=16;sketch=1;curveFitting=1;jiggle=2;" parent="1" source="83" target="90" edge="1">
                    <mxGeometry relative="1" as="geometry"/>
                </mxCell>
                <mxCell id="81" style="edgeStyle=none;hachureGap=4;html=1;entryX=0.5;entryY=0;entryDx=0;entryDy=0;fontFamily=Architects Daughter;fontSource=https%3A%2F%2Ffonts.googleapis.com%2Fcss%3Ffamily%3DArchitects%2BDaughter;fontSize=16;sketch=1;curveFitting=1;jiggle=2;" parent="1" source="83" target="89" edge="1">
                    <mxGeometry relative="1" as="geometry"/>
                </mxCell>
                <mxCell id="82" style="edgeStyle=none;hachureGap=4;html=1;entryX=0.747;entryY=0.02;entryDx=0;entryDy=0;fontFamily=Architects Daughter;fontSource=https%3A%2F%2Ffonts.googleapis.com%2Fcss%3Ffamily%3DArchitects%2BDaughter;fontSize=16;entryPerimeter=0;sketch=1;curveFitting=1;jiggle=2;" parent="1" source="83" target="88" edge="1">
                    <mxGeometry relative="1" as="geometry"/>
                </mxCell>
                <mxCell id="83" value="9" style="ellipse;whiteSpace=wrap;html=1;aspect=fixed;fontFamily=Helvetica;fontSize=16;sketch=1;curveFitting=1;jiggle=2;" parent="1" vertex="1">
                    <mxGeometry x="623" y="713" width="50" height="50" as="geometry"/>
                </mxCell>
                <mxCell id="84" value="10" style="ellipse;whiteSpace=wrap;html=1;aspect=fixed;fontFamily=Helvetica;fontSize=16;sketch=1;curveFitting=1;jiggle=2;" parent="1" vertex="1">
                    <mxGeometry x="293" y="803" width="50" height="50" as="geometry"/>
                </mxCell>
                <mxCell id="85" value="11" style="ellipse;whiteSpace=wrap;html=1;aspect=fixed;fontFamily=Helvetica;fontSize=16;sketch=1;curveFitting=1;jiggle=2;" parent="1" vertex="1">
                    <mxGeometry x="373" y="803" width="50" height="50" as="geometry"/>
                </mxCell>
                <mxCell id="86" value="4" style="ellipse;whiteSpace=wrap;html=1;aspect=fixed;fontFamily=Helvetica;fontSize=16;sketch=1;curveFitting=1;jiggle=2;" parent="1" vertex="1">
                    <mxGeometry x="473" y="629" width="50" height="50" as="geometry"/>
                </mxCell>
                <mxCell id="87" value="12" style="ellipse;whiteSpace=wrap;html=1;aspect=fixed;fontFamily=Helvetica;fontSize=16;sketch=1;curveFitting=1;jiggle=2;" parent="1" vertex="1">
                    <mxGeometry x="483" y="803" width="50" height="50" as="geometry"/>
                </mxCell>
                <mxCell id="88" value="13" style="ellipse;whiteSpace=wrap;html=1;aspect=fixed;fontFamily=Helvetica;fontSize=16;sketch=1;curveFitting=1;jiggle=2;" parent="1" vertex="1">
                    <mxGeometry x="563" y="803" width="50" height="50" as="geometry"/>
                </mxCell>
                <mxCell id="89" value="14" style="ellipse;whiteSpace=wrap;html=1;aspect=fixed;fontFamily=Helvetica;fontSize=16;sketch=1;curveFitting=1;jiggle=2;" parent="1" vertex="1">
                    <mxGeometry x="623" y="803" width="50" height="50" as="geometry"/>
                </mxCell>
                <mxCell id="90" value="15" style="ellipse;whiteSpace=wrap;html=1;aspect=fixed;fontFamily=Helvetica;fontSize=16;sketch=1;curveFitting=1;jiggle=2;" parent="1" vertex="1">
                    <mxGeometry x="683" y="803" width="50" height="50" as="geometry"/>
                </mxCell>
                <mxCell id="91" value="根节点" style="text;html=1;align=center;verticalAlign=middle;resizable=0;points=[];autosize=1;strokeColor=none;fillColor=none;fontSize=14;fontFamily=Helvetica;sketch=1;hachureGap=4;jiggle=2;curveFitting=1;" parent="1" vertex="1">
                    <mxGeometry x="463" y="508" width="70" height="30" as="geometry"/>
                </mxCell>
                <mxCell id="92" style="edgeStyle=none;sketch=1;hachureGap=4;jiggle=2;curveFitting=1;html=1;entryX=1;entryY=1;entryDx=0;entryDy=0;fontFamily=Helvetica;fontSize=14;opacity=30;endArrow=none;endFill=0;" parent="1" source="100" target="84" edge="1">
                    <mxGeometry relative="1" as="geometry"/>
                </mxCell>
                <mxCell id="93" style="edgeStyle=none;sketch=1;hachureGap=4;jiggle=2;curveFitting=1;html=1;entryX=1;entryY=1;entryDx=0;entryDy=0;fontFamily=Helvetica;fontSize=14;opacity=30;endArrow=none;endFill=0;" parent="1" source="100" target="85" edge="1">
                    <mxGeometry relative="1" as="geometry"/>
                </mxCell>
                <mxCell id="94" style="edgeStyle=none;sketch=1;hachureGap=4;jiggle=2;curveFitting=1;html=1;entryX=0.5;entryY=1;entryDx=0;entryDy=0;fontFamily=Helvetica;fontSize=14;opacity=30;endArrow=none;endFill=0;" parent="1" source="100" target="77" edge="1">
                    <mxGeometry relative="1" as="geometry"/>
                </mxCell>
                <mxCell id="95" style="edgeStyle=none;sketch=1;hachureGap=4;jiggle=2;curveFitting=1;html=1;entryX=0.5;entryY=1;entryDx=0;entryDy=0;fontFamily=Helvetica;fontSize=14;opacity=30;endArrow=none;endFill=0;" parent="1" source="100" target="86" edge="1">
                    <mxGeometry relative="1" as="geometry"/>
                </mxCell>
                <mxCell id="96" style="edgeStyle=none;sketch=1;hachureGap=4;jiggle=2;curveFitting=1;html=1;entryX=0.5;entryY=1;entryDx=0;entryDy=0;fontFamily=Helvetica;fontSize=14;opacity=30;endArrow=none;endFill=0;" parent="1" source="100" target="87" edge="1">
                    <mxGeometry relative="1" as="geometry"/>
                </mxCell>
                <mxCell id="97" style="edgeStyle=none;sketch=1;hachureGap=4;jiggle=2;curveFitting=1;html=1;entryX=0.2;entryY=1;entryDx=0;entryDy=0;entryPerimeter=0;fontFamily=Helvetica;fontSize=14;opacity=30;endArrow=none;endFill=0;" parent="1" source="100" target="88" edge="1">
                    <mxGeometry relative="1" as="geometry"/>
                </mxCell>
                <mxCell id="98" style="edgeStyle=none;sketch=1;hachureGap=4;jiggle=2;curveFitting=1;html=1;entryX=0;entryY=1;entryDx=0;entryDy=0;fontFamily=Helvetica;fontSize=14;opacity=30;endArrow=none;endFill=0;" parent="1" source="100" target="89" edge="1">
                    <mxGeometry relative="1" as="geometry"/>
                </mxCell>
                <mxCell id="99" style="edgeStyle=none;sketch=1;hachureGap=4;jiggle=2;curveFitting=1;html=1;entryX=0;entryY=1;entryDx=0;entryDy=0;fontFamily=Helvetica;fontSize=14;opacity=30;endArrow=none;endFill=0;" parent="1" source="100" target="90" edge="1">
                    <mxGeometry relative="1" as="geometry"/>
                </mxCell>
                <mxCell id="100" value="叶节点" style="text;html=1;align=center;verticalAlign=middle;resizable=0;points=[];autosize=1;strokeColor=none;fillColor=none;fontSize=14;fontFamily=Helvetica;sketch=1;hachureGap=4;jiggle=2;curveFitting=1;" parent="1" vertex="1">
                    <mxGeometry x="463" y="933" width="70" height="30" as="geometry"/>
                </mxCell>
                <mxCell id="101" value="第1层" style="text;html=1;align=center;verticalAlign=middle;resizable=0;points=[];autosize=1;strokeColor=none;fillColor=none;fontSize=14;fontFamily=Helvetica;sketch=1;hachureGap=4;jiggle=2;curveFitting=1;" parent="1" vertex="1">
                    <mxGeometry x="393" y="558" width="60" height="30" as="geometry"/>
                </mxCell>
                <mxCell id="102" value="第2层" style="text;html=1;align=center;verticalAlign=middle;resizable=0;points=[];autosize=1;strokeColor=none;fillColor=none;fontSize=14;fontFamily=Helvetica;sketch=1;hachureGap=4;jiggle=2;curveFitting=1;" parent="1" vertex="1">
                    <mxGeometry x="308" y="639" width="60" height="30" as="geometry"/>
                </mxCell>
                <mxCell id="103" value="第3层" style="text;html=1;align=center;verticalAlign=middle;resizable=0;points=[];autosize=1;strokeColor=none;fillColor=none;fontSize=14;fontFamily=Helvetica;sketch=1;hachureGap=4;jiggle=2;curveFitting=1;" parent="1" vertex="1">
                    <mxGeometry x="258" y="723" width="60" height="30" as="geometry"/>
                </mxCell>
                <mxCell id="104" value="第4层" style="text;html=1;align=center;verticalAlign=middle;resizable=0;points=[];autosize=1;strokeColor=none;fillColor=none;fontSize=14;fontFamily=Helvetica;sketch=1;hachureGap=4;jiggle=2;curveFitting=1;" parent="1" vertex="1">
                    <mxGeometry x="208" y="813" width="60" height="30" as="geometry"/>
                </mxCell>
                <mxCell id="105" value="" style="endArrow=none;html=1;sketch=1;hachureGap=4;jiggle=2;curveFitting=1;fontFamily=Helvetica;fontSize=14;entryX=0;entryY=0.5;entryDx=0;entryDy=0;" parent="1" target="61" edge="1">
                    <mxGeometry width="50" height="50" relative="1" as="geometry">
                        <mxPoint x="148" y="573" as="sourcePoint"/>
                        <mxPoint x="368" y="580.5" as="targetPoint"/>
                    </mxGeometry>
                </mxCell>
                <mxCell id="106" value="" style="endArrow=classic;html=1;sketch=1;hachureGap=4;jiggle=2;curveFitting=1;fontFamily=Helvetica;fontSize=14;entryX=0.492;entryY=-0.033;entryDx=0;entryDy=0;entryPerimeter=0;" parent="1" target="109" edge="1">
                    <mxGeometry width="50" height="50" relative="1" as="geometry">
                        <mxPoint x="278" y="573" as="sourcePoint"/>
                        <mxPoint x="647.52" y="648" as="targetPoint"/>
                    </mxGeometry>
                </mxCell>
                <mxCell id="107" value="" style="endArrow=classic;html=1;sketch=1;hachureGap=4;jiggle=2;curveFitting=1;fontFamily=Helvetica;fontSize=14;entryX=0.513;entryY=-0.078;entryDx=0;entryDy=0;entryPerimeter=0;" parent="1" target="110" edge="1">
                    <mxGeometry width="50" height="50" relative="1" as="geometry">
                        <mxPoint x="228" y="573" as="sourcePoint"/>
                        <mxPoint x="718" y="728" as="targetPoint"/>
                    </mxGeometry>
                </mxCell>
                <mxCell id="108" value="" style="endArrow=classic;html=1;sketch=1;hachureGap=4;jiggle=2;curveFitting=1;fontFamily=Helvetica;fontSize=14;entryX=0.498;entryY=0.021;entryDx=0;entryDy=0;entryPerimeter=0;" parent="1" target="111" edge="1">
                    <mxGeometry width="50" height="50" relative="1" as="geometry">
                        <mxPoint x="178" y="572" as="sourcePoint"/>
                        <mxPoint x="778" y="828" as="targetPoint"/>
                    </mxGeometry>
                </mxCell>
                <mxCell id="109" value="深度1" style="text;html=1;align=center;verticalAlign=middle;resizable=0;points=[];autosize=1;strokeColor=none;fillColor=none;fontSize=14;fontFamily=Helvetica;sketch=1;hachureGap=4;jiggle=2;curveFitting=1;" parent="1" vertex="1">
                    <mxGeometry x="248" y="639" width="60" height="30" as="geometry"/>
                </mxCell>
                <mxCell id="110" value="深度2" style="text;html=1;align=center;verticalAlign=middle;resizable=0;points=[];autosize=1;strokeColor=none;fillColor=none;fontSize=14;fontFamily=Helvetica;sketch=1;hachureGap=4;jiggle=2;curveFitting=1;" parent="1" vertex="1">
                    <mxGeometry x="198" y="723" width="60" height="30" as="geometry"/>
                </mxCell>
                <mxCell id="111" value="深度3" style="text;html=1;align=center;verticalAlign=middle;resizable=0;points=[];autosize=1;strokeColor=none;fillColor=none;fontSize=14;fontFamily=Helvetica;sketch=1;hachureGap=4;jiggle=2;curveFitting=1;" parent="1" vertex="1">
                    <mxGeometry x="148" y="813" width="60" height="30" as="geometry"/>
                </mxCell>
                <mxCell id="112" value="" style="endArrow=none;html=1;sketch=1;hachureGap=4;jiggle=2;curveFitting=1;fontFamily=Helvetica;fontSize=14;dashed=1;opacity=40;" parent="1" edge="1">
                    <mxGeometry width="50" height="50" relative="1" as="geometry">
                        <mxPoint x="676" y="781" as="sourcePoint"/>
                        <mxPoint x="768" y="678" as="targetPoint"/>
                    </mxGeometry>
                </mxCell>
                <mxCell id="113" value="" style="endArrow=none;html=1;sketch=1;hachureGap=4;jiggle=2;curveFitting=1;fontFamily=Helvetica;fontSize=14;dashed=1;opacity=40;" parent="1" edge="1">
                    <mxGeometry width="50" height="50" relative="1" as="geometry">
                        <mxPoint x="610" y="693" as="sourcePoint"/>
                        <mxPoint x="768" y="678" as="targetPoint"/>
                    </mxGeometry>
                </mxCell>
                <mxCell id="114" value="" style="endArrow=none;html=1;sketch=1;hachureGap=4;jiggle=2;curveFitting=1;fontFamily=Helvetica;fontSize=14;dashed=1;opacity=40;" parent="1" edge="1">
                    <mxGeometry width="50" height="50" relative="1" as="geometry">
                        <mxPoint x="539" y="609" as="sourcePoint"/>
                        <mxPoint x="768" y="678" as="targetPoint"/>
                    </mxGeometry>
                </mxCell>
                <mxCell id="115" value="树的高度 3" style="text;html=1;align=center;verticalAlign=middle;resizable=0;points=[];autosize=1;strokeColor=none;fillColor=none;fontSize=14;fontFamily=Helvetica;sketch=1;hachureGap=4;jiggle=2;curveFitting=1;" parent="1" vertex="1">
                    <mxGeometry x="762" y="663" width="90" height="30" as="geometry"/>
                </mxCell>
                <mxCell id="116" value="树" style="text;html=1;strokeColor=none;fillColor=none;align=center;verticalAlign=middle;whiteSpace=wrap;rounded=0;sketch=1;hachureGap=4;jiggle=2;curveFitting=1;fontFamily=Helvetica;fontSize=20;" parent="1" vertex="1">
                    <mxGeometry x="207" y="241" width="60" height="30" as="geometry"/>
                </mxCell>
                <mxCell id="117" style="edgeStyle=none;html=1;entryX=0.728;entryY=0.076;entryDx=0;entryDy=0;entryPerimeter=0;fontFamily=Helvetica;fontSize=16;sketch=1;curveFitting=1;jiggle=2;" parent="1" source="120" target="123" edge="1">
                    <mxGeometry relative="1" as="geometry"/>
                </mxCell>
                <mxCell id="118" style="edgeStyle=none;html=1;entryX=0.309;entryY=0.043;entryDx=0;entryDy=0;entryPerimeter=0;fontFamily=Helvetica;fontSize=16;sketch=1;curveFitting=1;jiggle=2;" parent="1" source="120" target="126" edge="1">
                    <mxGeometry relative="1" as="geometry"/>
                </mxCell>
                <mxCell id="120" value="1" style="ellipse;whiteSpace=wrap;html=1;aspect=fixed;fontFamily=Helvetica;fontSize=16;sketch=1;curveFitting=1;jiggle=2;" parent="1" vertex="1">
                    <mxGeometry x="465" y="1038" width="50" height="50" as="geometry"/>
                </mxCell>
                <mxCell id="121" style="edgeStyle=none;html=1;entryX=0.267;entryY=0.019;entryDx=0;entryDy=0;fontFamily=Helvetica;fontSize=16;entryPerimeter=0;sketch=1;curveFitting=1;jiggle=2;" parent="1" source="123" target="130" edge="1">
                    <mxGeometry relative="1" as="geometry"/>
                </mxCell>
                <mxCell id="122" style="edgeStyle=none;html=1;entryX=0.685;entryY=0.063;entryDx=0;entryDy=0;fontFamily=Helvetica;fontSize=16;entryPerimeter=0;sketch=1;curveFitting=1;jiggle=2;" parent="1" source="123" target="129" edge="1">
                    <mxGeometry relative="1" as="geometry"/>
                </mxCell>
                <mxCell id="123" value="2" style="ellipse;whiteSpace=wrap;html=1;aspect=fixed;fontFamily=Helvetica;fontSize=16;sketch=1;curveFitting=1;jiggle=2;" parent="1" vertex="1">
                    <mxGeometry x="337" y="1119" width="50" height="50" as="geometry"/>
                </mxCell>
                <mxCell id="124" style="edgeStyle=none;html=1;fontFamily=Helvetica;fontSize=16;sketch=1;curveFitting=1;jiggle=2;" parent="1" source="126" target="132" edge="1">
                    <mxGeometry relative="1" as="geometry"/>
                </mxCell>
                <mxCell id="125" style="edgeStyle=none;html=1;fontFamily=Helvetica;fontSize=16;sketch=1;curveFitting=1;jiggle=2;" parent="1" source="126" target="136" edge="1">
                    <mxGeometry relative="1" as="geometry">
                        <mxPoint x="625" y="1188" as="targetPoint"/>
                    </mxGeometry>
                </mxCell>
                <mxCell id="126" value="5" style="ellipse;whiteSpace=wrap;html=1;aspect=fixed;fontFamily=Helvetica;fontSize=16;sketch=1;curveFitting=1;jiggle=2;" parent="1" vertex="1">
                    <mxGeometry x="585" y="1119" width="50" height="50" as="geometry"/>
                </mxCell>
                <mxCell id="127" style="edgeStyle=none;hachureGap=4;html=1;fontFamily=Architects Daughter;fontSource=https%3A%2F%2Ffonts.googleapis.com%2Fcss%3Ffamily%3DArchitects%2BDaughter;fontSize=16;sketch=1;curveFitting=1;jiggle=2;" parent="1" source="129" target="137" edge="1">
                    <mxGeometry relative="1" as="geometry"/>
                </mxCell>
                <mxCell id="128" style="edgeStyle=none;hachureGap=4;html=1;entryX=0.284;entryY=0.058;entryDx=0;entryDy=0;entryPerimeter=0;fontFamily=Architects Daughter;fontSource=https%3A%2F%2Ffonts.googleapis.com%2Fcss%3Ffamily%3DArchitects%2BDaughter;fontSize=16;sketch=1;curveFitting=1;jiggle=2;" parent="1" source="129" target="138" edge="1">
                    <mxGeometry relative="1" as="geometry"/>
                </mxCell>
                <mxCell id="129" value="6" style="ellipse;whiteSpace=wrap;html=1;aspect=fixed;fontFamily=Helvetica;fontSize=16;sketch=1;curveFitting=1;jiggle=2;" parent="1" vertex="1">
                    <mxGeometry x="296" y="1199" width="50" height="50" as="geometry"/>
                </mxCell>
                <mxCell id="130" value="7" style="ellipse;whiteSpace=wrap;html=1;aspect=fixed;fontFamily=Helvetica;fontSize=16;sketch=1;curveFitting=1;jiggle=2;" parent="1" vertex="1">
                    <mxGeometry x="380" y="1199" width="50" height="50" as="geometry"/>
                </mxCell>
                <mxCell id="131" style="edgeStyle=none;hachureGap=4;html=1;entryX=0.68;entryY=0.007;entryDx=0;entryDy=0;entryPerimeter=0;fontFamily=Architects Daughter;fontSource=https%3A%2F%2Ffonts.googleapis.com%2Fcss%3Ffamily%3DArchitects%2BDaughter;fontSize=16;sketch=1;curveFitting=1;jiggle=2;" parent="1" source="132" target="140" edge="1">
                    <mxGeometry relative="1" as="geometry"/>
                </mxCell>
                <mxCell id="132" value="8" style="ellipse;whiteSpace=wrap;html=1;aspect=fixed;fontFamily=Helvetica;fontSize=16;sketch=1;curveFitting=1;jiggle=2;" parent="1" vertex="1">
                    <mxGeometry x="535" y="1199" width="50" height="50" as="geometry"/>
                </mxCell>
                <mxCell id="133" value="" style="edgeStyle=none;hachureGap=4;html=1;fontFamily=Architects Daughter;fontSource=https%3A%2F%2Ffonts.googleapis.com%2Fcss%3Ffamily%3DArchitects%2BDaughter;fontSize=16;sketch=1;curveFitting=1;jiggle=2;" parent="1" source="136" target="143" edge="1">
                    <mxGeometry relative="1" as="geometry"/>
                </mxCell>
                <mxCell id="134" style="edgeStyle=none;hachureGap=4;html=1;entryX=0.5;entryY=0;entryDx=0;entryDy=0;fontFamily=Architects Daughter;fontSource=https%3A%2F%2Ffonts.googleapis.com%2Fcss%3Ffamily%3DArchitects%2BDaughter;fontSize=16;sketch=1;curveFitting=1;jiggle=2;" parent="1" source="136" target="142" edge="1">
                    <mxGeometry relative="1" as="geometry"/>
                </mxCell>
                <mxCell id="136" value="9" style="ellipse;whiteSpace=wrap;html=1;aspect=fixed;fontFamily=Helvetica;fontSize=16;sketch=1;curveFitting=1;jiggle=2;" parent="1" vertex="1">
                    <mxGeometry x="635" y="1199" width="50" height="50" as="geometry"/>
                </mxCell>
                <mxCell id="137" value="10" style="ellipse;whiteSpace=wrap;html=1;aspect=fixed;fontFamily=Helvetica;fontSize=16;sketch=1;curveFitting=1;jiggle=2;" parent="1" vertex="1">
                    <mxGeometry x="243" y="1286" width="50" height="50" as="geometry"/>
                </mxCell>
                <mxCell id="138" value="11" style="ellipse;whiteSpace=wrap;html=1;aspect=fixed;fontFamily=Helvetica;fontSize=16;sketch=1;curveFitting=1;jiggle=2;" parent="1" vertex="1">
                    <mxGeometry x="337" y="1286" width="50" height="50" as="geometry"/>
                </mxCell>
                <mxCell id="140" value="12" style="ellipse;whiteSpace=wrap;html=1;aspect=fixed;fontFamily=Helvetica;fontSize=16;sketch=1;curveFitting=1;jiggle=2;" parent="1" vertex="1">
                    <mxGeometry x="513" y="1289" width="50" height="50" as="geometry"/>
                </mxCell>
                <mxCell id="142" value="14" style="ellipse;whiteSpace=wrap;html=1;aspect=fixed;fontFamily=Helvetica;fontSize=16;sketch=1;curveFitting=1;jiggle=2;" parent="1" vertex="1">
                    <mxGeometry x="600" y="1293" width="50" height="50" as="geometry"/>
                </mxCell>
                <mxCell id="143" value="15" style="ellipse;whiteSpace=wrap;html=1;aspect=fixed;fontFamily=Helvetica;fontSize=16;sketch=1;curveFitting=1;jiggle=2;" parent="1" vertex="1">
                    <mxGeometry x="678" y="1293" width="50" height="50" as="geometry"/>
                </mxCell>
                <mxCell id="144" value="二叉树" style="text;html=1;strokeColor=none;fillColor=none;align=center;verticalAlign=middle;whiteSpace=wrap;rounded=0;sketch=1;hachureGap=4;jiggle=2;curveFitting=1;fontFamily=Helvetica;fontSize=20;" parent="1" vertex="1">
                    <mxGeometry x="125" y="1194" width="77" height="30" as="geometry"/>
                </mxCell>
                <mxCell id="153" style="edgeStyle=none;sketch=1;hachureGap=4;jiggle=2;curveFitting=1;html=1;entryX=0.5;entryY=0;entryDx=0;entryDy=0;fontFamily=Helvetica;fontSize=20;endArrow=classic;endFill=1;" parent="1" source="146" target="123" edge="1">
                    <mxGeometry relative="1" as="geometry"/>
                </mxCell>
                <mxCell id="146" value="左子节点" style="text;html=1;align=center;verticalAlign=middle;resizable=0;points=[];autosize=1;strokeColor=none;fillColor=none;fontSize=14;fontFamily=Helvetica;sketch=1;hachureGap=4;jiggle=2;curveFitting=1;" parent="1" vertex="1">
                    <mxGeometry x="325" y="1056" width="74" height="29" as="geometry"/>
                </mxCell>
                <mxCell id="154" style="edgeStyle=none;sketch=1;hachureGap=4;jiggle=2;curveFitting=1;html=1;entryX=0.5;entryY=0;entryDx=0;entryDy=0;fontFamily=Helvetica;fontSize=20;endArrow=classic;endFill=1;" parent="1" source="147" target="126" edge="1">
                    <mxGeometry relative="1" as="geometry"/>
                </mxCell>
                <mxCell id="147" value="右子节点" style="text;html=1;align=center;verticalAlign=middle;resizable=0;points=[];autosize=1;strokeColor=none;fillColor=none;fontSize=14;fontFamily=Helvetica;sketch=1;hachureGap=4;jiggle=2;curveFitting=1;" parent="1" vertex="1">
                    <mxGeometry x="573" y="1056" width="74" height="29" as="geometry"/>
                </mxCell>
                <mxCell id="155" value="左子树" style="text;html=1;align=center;verticalAlign=middle;resizable=0;points=[];autosize=1;strokeColor=none;fillColor=none;fontSize=14;fontFamily=Helvetica;sketch=1;hachureGap=4;jiggle=2;curveFitting=1;" parent="1" vertex="1">
                    <mxGeometry x="229" y="1099" width="60" height="29" as="geometry"/>
                </mxCell>
                <mxCell id="156" value="右子树" style="text;html=1;align=center;verticalAlign=middle;resizable=0;points=[];autosize=1;strokeColor=none;fillColor=none;fontSize=14;fontFamily=Helvetica;sketch=1;hachureGap=4;jiggle=2;curveFitting=1;" parent="1" vertex="1">
                    <mxGeometry x="683" y="1099" width="60" height="29" as="geometry"/>
                </mxCell>
                <mxCell id="157" style="edgeStyle=none;html=1;entryX=0.728;entryY=0.076;entryDx=0;entryDy=0;entryPerimeter=0;fontFamily=Helvetica;fontSize=16;sketch=1;curveFitting=1;jiggle=2;" parent="1" source="160" target="163" edge="1">
                    <mxGeometry relative="1" as="geometry"/>
                </mxCell>
                <mxCell id="158" style="edgeStyle=none;html=1;entryX=0.309;entryY=0.043;entryDx=0;entryDy=0;entryPerimeter=0;fontFamily=Helvetica;fontSize=16;sketch=1;curveFitting=1;jiggle=2;" parent="1" source="160" target="166" edge="1">
                    <mxGeometry relative="1" as="geometry"/>
                </mxCell>
                <mxCell id="160" value="2" style="ellipse;whiteSpace=wrap;html=1;aspect=fixed;fontFamily=Helvetica;fontSize=16;sketch=1;curveFitting=1;jiggle=2;" parent="1" vertex="1">
                    <mxGeometry x="469" y="1604" width="50" height="50" as="geometry"/>
                </mxCell>
                <mxCell id="161" style="edgeStyle=none;html=1;entryX=0.267;entryY=0.019;entryDx=0;entryDy=0;fontFamily=Helvetica;fontSize=16;entryPerimeter=0;sketch=1;curveFitting=1;jiggle=2;" parent="1" source="163" target="170" edge="1">
                    <mxGeometry relative="1" as="geometry"/>
                </mxCell>
                <mxCell id="162" style="edgeStyle=none;html=1;entryX=0.685;entryY=0.063;entryDx=0;entryDy=0;fontFamily=Helvetica;fontSize=16;entryPerimeter=0;sketch=1;curveFitting=1;jiggle=2;" parent="1" source="163" target="169" edge="1">
                    <mxGeometry relative="1" as="geometry"/>
                </mxCell>
                <mxCell id="163" value="3" style="ellipse;whiteSpace=wrap;html=1;aspect=fixed;fontFamily=Helvetica;fontSize=16;sketch=1;curveFitting=1;jiggle=2;" parent="1" vertex="1">
                    <mxGeometry x="326" y="1688" width="50" height="50" as="geometry"/>
                </mxCell>
                <mxCell id="165" style="edgeStyle=none;html=1;fontFamily=Helvetica;fontSize=16;sketch=1;curveFitting=1;jiggle=2;" parent="1" source="166" target="176" edge="1">
                    <mxGeometry relative="1" as="geometry">
                        <mxPoint x="589" y="1754" as="targetPoint"/>
                    </mxGeometry>
                </mxCell>
                <mxCell id="198" style="edgeStyle=none;sketch=1;hachureGap=4;jiggle=2;curveFitting=1;html=1;entryX=1;entryY=0;entryDx=0;entryDy=0;dashed=1;fontFamily=Helvetica;fontSize=20;endArrow=classic;endFill=1;opacity=50;" parent="1" source="166" target="195" edge="1">
                    <mxGeometry relative="1" as="geometry"/>
                </mxCell>
                <mxCell id="166" value="5" style="ellipse;whiteSpace=wrap;html=1;aspect=fixed;fontFamily=Helvetica;fontSize=16;sketch=1;curveFitting=1;jiggle=2;" parent="1" vertex="1">
                    <mxGeometry x="626" y="1688" width="50" height="50" as="geometry"/>
                </mxCell>
                <mxCell id="167" style="edgeStyle=none;hachureGap=4;html=1;fontFamily=Architects Daughter;fontSource=https%3A%2F%2Ffonts.googleapis.com%2Fcss%3Ffamily%3DArchitects%2BDaughter;fontSize=16;sketch=1;curveFitting=1;jiggle=2;" parent="1" source="169" target="177" edge="1">
                    <mxGeometry relative="1" as="geometry"/>
                </mxCell>
                <mxCell id="168" style="edgeStyle=none;hachureGap=4;html=1;entryX=0.284;entryY=0.058;entryDx=0;entryDy=0;entryPerimeter=0;fontFamily=Architects Daughter;fontSource=https%3A%2F%2Ffonts.googleapis.com%2Fcss%3Ffamily%3DArchitects%2BDaughter;fontSize=16;sketch=1;curveFitting=1;jiggle=2;" parent="1" source="169" target="178" edge="1">
                    <mxGeometry relative="1" as="geometry"/>
                </mxCell>
                <mxCell id="169" value="7" style="ellipse;whiteSpace=wrap;html=1;aspect=fixed;fontFamily=Helvetica;fontSize=16;sketch=1;curveFitting=1;jiggle=2;" parent="1" vertex="1">
                    <mxGeometry x="250" y="1769" width="50" height="50" as="geometry"/>
                </mxCell>
                <mxCell id="170" value="11" style="ellipse;whiteSpace=wrap;html=1;aspect=fixed;fontFamily=Helvetica;fontSize=16;sketch=1;curveFitting=1;jiggle=2;" parent="1" vertex="1">
                    <mxGeometry x="393" y="1769" width="50" height="50" as="geometry"/>
                </mxCell>
                <mxCell id="173" value="" style="edgeStyle=none;hachureGap=4;html=1;fontFamily=Architects Daughter;fontSource=https%3A%2F%2Ffonts.googleapis.com%2Fcss%3Ffamily%3DArchitects%2BDaughter;fontSize=16;sketch=1;curveFitting=1;jiggle=2;" parent="1" source="176" target="183" edge="1">
                    <mxGeometry relative="1" as="geometry"/>
                </mxCell>
                <mxCell id="174" style="edgeStyle=none;hachureGap=4;html=1;entryX=0.71;entryY=0.01;entryDx=0;entryDy=0;fontFamily=Architects Daughter;fontSource=https%3A%2F%2Ffonts.googleapis.com%2Fcss%3Ffamily%3DArchitects%2BDaughter;fontSize=16;sketch=1;curveFitting=1;jiggle=2;entryPerimeter=0;" parent="1" source="176" target="182" edge="1">
                    <mxGeometry relative="1" as="geometry"/>
                </mxCell>
                <mxCell id="176" value="17" style="ellipse;whiteSpace=wrap;html=1;aspect=fixed;fontFamily=Helvetica;fontSize=16;sketch=1;curveFitting=1;jiggle=2;" parent="1" vertex="1">
                    <mxGeometry x="712" y="1764" width="50" height="50" as="geometry"/>
                </mxCell>
                <mxCell id="177" value="19" style="ellipse;whiteSpace=wrap;html=1;aspect=fixed;fontFamily=Helvetica;fontSize=16;sketch=1;curveFitting=1;jiggle=2;" parent="1" vertex="1">
                    <mxGeometry x="202" y="1850" width="50" height="50" as="geometry"/>
                </mxCell>
                <mxCell id="178" value="23" style="ellipse;whiteSpace=wrap;html=1;aspect=fixed;fontFamily=Helvetica;fontSize=16;sketch=1;curveFitting=1;jiggle=2;" parent="1" vertex="1">
                    <mxGeometry x="290" y="1850" width="50" height="50" as="geometry"/>
                </mxCell>
                <mxCell id="182" value="41" style="ellipse;whiteSpace=wrap;html=1;aspect=fixed;fontFamily=Helvetica;fontSize=16;sketch=1;curveFitting=1;jiggle=2;" parent="1" vertex="1">
                    <mxGeometry x="669" y="1850" width="50" height="50" as="geometry"/>
                </mxCell>
                <mxCell id="183" value="43" style="ellipse;whiteSpace=wrap;html=1;aspect=fixed;fontFamily=Helvetica;fontSize=16;sketch=1;curveFitting=1;jiggle=2;" parent="1" vertex="1">
                    <mxGeometry x="762" y="1850" width="50" height="50" as="geometry"/>
                </mxCell>
                <mxCell id="189" style="edgeStyle=none;hachureGap=4;html=1;fontFamily=Architects Daughter;fontSource=https%3A%2F%2Ffonts.googleapis.com%2Fcss%3Ffamily%3DArchitects%2BDaughter;fontSize=16;sketch=1;curveFitting=1;jiggle=2;dashed=1;opacity=50;" parent="1" target="191" edge="1">
                    <mxGeometry relative="1" as="geometry">
                        <mxPoint x="409.20487062264647" y="1815.4775385977005" as="sourcePoint"/>
                    </mxGeometry>
                </mxCell>
                <mxCell id="190" style="edgeStyle=none;hachureGap=4;html=1;entryX=0.284;entryY=0.058;entryDx=0;entryDy=0;entryPerimeter=0;fontFamily=Architects Daughter;fontSource=https%3A%2F%2Ffonts.googleapis.com%2Fcss%3Ffamily%3DArchitects%2BDaughter;fontSize=16;sketch=1;curveFitting=1;jiggle=2;dashed=1;opacity=50;" parent="1" target="192" edge="1">
                    <mxGeometry relative="1" as="geometry">
                        <mxPoint x="432.988821599507" y="1816.4554180511668" as="sourcePoint"/>
                    </mxGeometry>
                </mxCell>
                <mxCell id="191" value="" style="ellipse;whiteSpace=wrap;html=1;aspect=fixed;fontFamily=Helvetica;fontSize=16;sketch=1;curveFitting=1;jiggle=2;dashed=1;opacity=50;" parent="1" vertex="1">
                    <mxGeometry x="349" y="1850" width="50" height="50" as="geometry"/>
                </mxCell>
                <mxCell id="192" value="" style="ellipse;whiteSpace=wrap;html=1;aspect=fixed;fontFamily=Helvetica;fontSize=16;sketch=1;curveFitting=1;jiggle=2;dashed=1;opacity=50;" parent="1" vertex="1">
                    <mxGeometry x="437" y="1850" width="50" height="50" as="geometry"/>
                </mxCell>
                <mxCell id="193" value="" style="edgeStyle=none;hachureGap=4;html=1;fontFamily=Architects Daughter;fontSource=https%3A%2F%2Ffonts.googleapis.com%2Fcss%3Ffamily%3DArchitects%2BDaughter;fontSize=16;sketch=1;curveFitting=1;jiggle=2;dashed=1;opacity=50;" parent="1" source="195" target="197" edge="1">
                    <mxGeometry relative="1" as="geometry"/>
                </mxCell>
                <mxCell id="194" style="edgeStyle=none;hachureGap=4;html=1;entryX=0.71;entryY=0.01;entryDx=0;entryDy=0;fontFamily=Architects Daughter;fontSource=https%3A%2F%2Ffonts.googleapis.com%2Fcss%3Ffamily%3DArchitects%2BDaughter;fontSize=16;sketch=1;curveFitting=1;jiggle=2;entryPerimeter=0;dashed=1;opacity=50;" parent="1" source="195" target="196" edge="1">
                    <mxGeometry relative="1" as="geometry"/>
                </mxCell>
                <mxCell id="195" value="" style="ellipse;whiteSpace=wrap;html=1;aspect=fixed;fontFamily=Helvetica;fontSize=16;sketch=1;curveFitting=1;jiggle=2;dashed=1;opacity=50;" parent="1" vertex="1">
                    <mxGeometry x="555" y="1764" width="50" height="50" as="geometry"/>
                </mxCell>
                <mxCell id="196" value="" style="ellipse;whiteSpace=wrap;html=1;aspect=fixed;fontFamily=Helvetica;fontSize=16;sketch=1;curveFitting=1;jiggle=2;dashed=1;opacity=50;" parent="1" vertex="1">
                    <mxGeometry x="513" y="1850" width="50" height="50" as="geometry"/>
                </mxCell>
                <mxCell id="197" value="" style="ellipse;whiteSpace=wrap;html=1;aspect=fixed;fontFamily=Helvetica;fontSize=16;sketch=1;curveFitting=1;jiggle=2;dashed=1;opacity=50;" parent="1" vertex="1">
                    <mxGeometry x="605" y="1850" width="50" height="50" as="geometry"/>
                </mxCell>
                <mxCell id="199" value="0" style="text;html=1;strokeColor=none;fillColor=none;align=center;verticalAlign=middle;whiteSpace=wrap;rounded=0;dashed=1;sketch=1;hachureGap=4;jiggle=2;curveFitting=1;fontFamily=Helvetica;fontSize=14;opacity=50;" parent="1" vertex="1">
                    <mxGeometry x="482" y="1580" width="24" height="24" as="geometry"/>
                </mxCell>
                <mxCell id="201" value="2" style="text;html=1;strokeColor=none;fillColor=none;align=center;verticalAlign=middle;whiteSpace=wrap;rounded=0;dashed=1;sketch=1;hachureGap=4;jiggle=2;curveFitting=1;fontFamily=Helvetica;fontSize=14;opacity=50;" parent="1" vertex="1">
                    <mxGeometry x="639" y="1664" width="24" height="24" as="geometry"/>
                </mxCell>
                <mxCell id="202" value="3" style="text;html=1;strokeColor=none;fillColor=none;align=center;verticalAlign=middle;whiteSpace=wrap;rounded=0;dashed=1;sketch=1;hachureGap=4;jiggle=2;curveFitting=1;fontFamily=Helvetica;fontSize=14;opacity=50;" parent="1" vertex="1">
                    <mxGeometry x="263" y="1745" width="24" height="24" as="geometry"/>
                </mxCell>
                <mxCell id="203" value="7" style="text;html=1;strokeColor=none;fillColor=none;align=center;verticalAlign=middle;whiteSpace=wrap;rounded=0;dashed=1;sketch=1;hachureGap=4;jiggle=2;curveFitting=1;fontFamily=Helvetica;fontSize=14;opacity=50;" parent="1" vertex="1">
                    <mxGeometry x="215" y="1826" width="24" height="24" as="geometry"/>
                </mxCell>
                <mxCell id="204" value="11" style="text;html=1;strokeColor=none;fillColor=none;align=center;verticalAlign=middle;whiteSpace=wrap;rounded=0;dashed=1;sketch=1;hachureGap=4;jiggle=2;curveFitting=1;fontFamily=Helvetica;fontSize=14;opacity=50;" parent="1" vertex="1">
                    <mxGeometry x="525" y="1826" width="24" height="24" as="geometry"/>
                </mxCell>
                <mxCell id="205" value="10" style="text;html=1;strokeColor=none;fillColor=none;align=center;verticalAlign=middle;whiteSpace=wrap;rounded=0;dashed=1;sketch=1;hachureGap=4;jiggle=2;curveFitting=1;fontFamily=Helvetica;fontSize=14;opacity=50;" parent="1" vertex="1">
                    <mxGeometry x="450" y="1826" width="24" height="24" as="geometry"/>
                </mxCell>
                <mxCell id="206" value="9" style="text;html=1;strokeColor=none;fillColor=none;align=center;verticalAlign=middle;whiteSpace=wrap;rounded=0;dashed=1;sketch=1;hachureGap=4;jiggle=2;curveFitting=1;fontFamily=Helvetica;fontSize=14;opacity=50;" parent="1" vertex="1">
                    <mxGeometry x="362" y="1826" width="24" height="24" as="geometry"/>
                </mxCell>
                <mxCell id="207" value="&lt;font style=&quot;font-size: 14px;&quot;&gt;8&lt;/font&gt;" style="text;html=1;strokeColor=none;fillColor=none;align=center;verticalAlign=middle;whiteSpace=wrap;rounded=0;dashed=1;sketch=1;hachureGap=4;jiggle=2;curveFitting=1;fontFamily=Helvetica;fontSize=10;opacity=50;" parent="1" vertex="1">
                    <mxGeometry x="303" y="1826" width="24" height="24" as="geometry"/>
                </mxCell>
                <mxCell id="208" value="&lt;font style=&quot;font-size: 14px;&quot;&gt;6&lt;/font&gt;" style="text;html=1;strokeColor=none;fillColor=none;align=center;verticalAlign=middle;whiteSpace=wrap;rounded=0;dashed=1;sketch=1;hachureGap=4;jiggle=2;curveFitting=1;fontFamily=Helvetica;fontSize=10;opacity=50;" parent="1" vertex="1">
                    <mxGeometry x="725" y="1740" width="24" height="24" as="geometry"/>
                </mxCell>
                <mxCell id="209" value="5" style="text;html=1;strokeColor=none;fillColor=none;align=center;verticalAlign=middle;whiteSpace=wrap;rounded=0;dashed=1;sketch=1;hachureGap=4;jiggle=2;curveFitting=1;fontFamily=Helvetica;fontSize=14;opacity=50;" parent="1" vertex="1">
                    <mxGeometry x="568" y="1740" width="24" height="24" as="geometry"/>
                </mxCell>
                <mxCell id="210" value="13" style="text;html=1;strokeColor=none;fillColor=none;align=center;verticalAlign=middle;whiteSpace=wrap;rounded=0;dashed=1;sketch=1;hachureGap=4;jiggle=2;curveFitting=1;fontFamily=Helvetica;fontSize=14;opacity=50;" parent="1" vertex="1">
                    <mxGeometry x="682" y="1826" width="24" height="24" as="geometry"/>
                </mxCell>
                <mxCell id="211" value="14" style="text;html=1;strokeColor=none;fillColor=none;align=center;verticalAlign=middle;whiteSpace=wrap;rounded=0;dashed=1;sketch=1;hachureGap=4;jiggle=2;curveFitting=1;fontFamily=Helvetica;fontSize=14;opacity=50;" parent="1" vertex="1">
                    <mxGeometry x="775" y="1826" width="24" height="24" as="geometry"/>
                </mxCell>
                <mxCell id="212" value="12" style="text;html=1;strokeColor=none;fillColor=none;align=center;verticalAlign=middle;whiteSpace=wrap;rounded=0;dashed=1;sketch=1;hachureGap=4;jiggle=2;curveFitting=1;fontFamily=Helvetica;fontSize=14;opacity=50;" parent="1" vertex="1">
                    <mxGeometry x="618" y="1826" width="24" height="24" as="geometry"/>
                </mxCell>
                <mxCell id="213" value="4" style="text;html=1;strokeColor=none;fillColor=none;align=center;verticalAlign=middle;whiteSpace=wrap;rounded=0;dashed=1;sketch=1;hachureGap=4;jiggle=2;curveFitting=1;fontFamily=Helvetica;fontSize=14;opacity=50;" parent="1" vertex="1">
                    <mxGeometry x="406" y="1745" width="24" height="24" as="geometry"/>
                </mxCell>
                <mxCell id="229" value="2" style="rounded=0;whiteSpace=wrap;html=1;hachureGap=4;fontFamily=Helvetica;fontSize=20;sketch=1;curveFitting=1;jiggle=2;" parent="1" vertex="1">
                    <mxGeometry x="115" y="1974" width="50" height="50" as="geometry"/>
                </mxCell>
                <mxCell id="230" value="3" style="rounded=0;whiteSpace=wrap;html=1;hachureGap=4;fontFamily=Helvetica;fontSize=20;sketch=1;curveFitting=1;jiggle=2;" parent="1" vertex="1">
                    <mxGeometry x="165" y="1974" width="50" height="50" as="geometry"/>
                </mxCell>
                <mxCell id="231" value="5" style="rounded=0;whiteSpace=wrap;html=1;hachureGap=4;fontFamily=Helvetica;fontSize=20;sketch=1;curveFitting=1;jiggle=2;" parent="1" vertex="1">
                    <mxGeometry x="215" y="1974" width="50" height="50" as="geometry"/>
                </mxCell>
                <mxCell id="232" value="7" style="rounded=0;whiteSpace=wrap;html=1;hachureGap=4;fontFamily=Helvetica;fontSize=20;sketch=1;curveFitting=1;jiggle=2;" parent="1" vertex="1">
                    <mxGeometry x="265" y="1974" width="50" height="50" as="geometry"/>
                </mxCell>
                <mxCell id="233" value="11" style="rounded=0;whiteSpace=wrap;html=1;hachureGap=4;fontFamily=Helvetica;fontSize=20;sketch=1;curveFitting=1;jiggle=2;" parent="1" vertex="1">
                    <mxGeometry x="315" y="1974" width="50" height="50" as="geometry"/>
                </mxCell>
                <mxCell id="234" value="0" style="text;html=1;align=center;verticalAlign=middle;resizable=0;points=[];autosize=1;strokeColor=none;fillColor=none;fontSize=14;fontFamily=Helvetica;sketch=1;hachureGap=4;jiggle=2;curveFitting=1;" parent="1" vertex="1">
                    <mxGeometry x="125" y="1945" width="26" height="29" as="geometry"/>
                </mxCell>
                <mxCell id="235" value="1" style="text;html=1;align=center;verticalAlign=middle;resizable=0;points=[];autosize=1;strokeColor=none;fillColor=none;fontSize=14;fontFamily=Helvetica;sketch=1;hachureGap=4;jiggle=2;curveFitting=1;" parent="1" vertex="1">
                    <mxGeometry x="175" y="1945" width="26" height="29" as="geometry"/>
                </mxCell>
                <mxCell id="236" value="2" style="text;html=1;align=center;verticalAlign=middle;resizable=0;points=[];autosize=1;strokeColor=none;fillColor=none;fontSize=14;fontFamily=Helvetica;sketch=1;hachureGap=4;jiggle=2;curveFitting=1;" parent="1" vertex="1">
                    <mxGeometry x="225" y="1945" width="26" height="29" as="geometry"/>
                </mxCell>
                <mxCell id="237" value="3" style="text;html=1;align=center;verticalAlign=middle;resizable=0;points=[];autosize=1;strokeColor=none;fillColor=none;fontSize=14;fontFamily=Helvetica;sketch=1;hachureGap=4;jiggle=2;curveFitting=1;" parent="1" vertex="1">
                    <mxGeometry x="275" y="1945" width="26" height="29" as="geometry"/>
                </mxCell>
                <mxCell id="238" value="4" style="text;html=1;align=center;verticalAlign=middle;resizable=0;points=[];autosize=1;strokeColor=none;fillColor=none;fontSize=14;fontFamily=Helvetica;sketch=1;hachureGap=4;jiggle=2;curveFitting=1;" parent="1" vertex="1">
                    <mxGeometry x="325" y="1945" width="26" height="29" as="geometry"/>
                </mxCell>
                <mxCell id="239" value="" style="rounded=0;whiteSpace=wrap;html=1;hachureGap=4;fontFamily=Helvetica;fontSize=20;sketch=1;curveFitting=1;jiggle=2;" parent="1" vertex="1">
                    <mxGeometry x="365" y="1974" width="50" height="50" as="geometry"/>
                </mxCell>
                <mxCell id="240" value="17" style="rounded=0;whiteSpace=wrap;html=1;hachureGap=4;fontFamily=Helvetica;fontSize=20;sketch=1;curveFitting=1;jiggle=2;" parent="1" vertex="1">
                    <mxGeometry x="415" y="1974" width="50" height="50" as="geometry"/>
                </mxCell>
                <mxCell id="241" value="5" style="text;html=1;align=center;verticalAlign=middle;resizable=0;points=[];autosize=1;strokeColor=none;fillColor=none;fontSize=14;fontFamily=Helvetica;sketch=1;hachureGap=4;jiggle=2;curveFitting=1;" parent="1" vertex="1">
                    <mxGeometry x="376" y="1945" width="26" height="29" as="geometry"/>
                </mxCell>
                <mxCell id="242" value="6" style="text;html=1;align=center;verticalAlign=middle;resizable=0;points=[];autosize=1;strokeColor=none;fillColor=none;fontSize=14;fontFamily=Helvetica;sketch=1;hachureGap=4;jiggle=2;curveFitting=1;" parent="1" vertex="1">
                    <mxGeometry x="426" y="1945" width="26" height="29" as="geometry"/>
                </mxCell>
                <mxCell id="272" value="19" style="rounded=0;whiteSpace=wrap;html=1;hachureGap=4;fontFamily=Helvetica;fontSize=20;sketch=1;curveFitting=1;jiggle=2;" parent="1" vertex="1">
                    <mxGeometry x="465" y="1974" width="50" height="50" as="geometry"/>
                </mxCell>
                <mxCell id="273" value="23" style="rounded=0;whiteSpace=wrap;html=1;hachureGap=4;fontFamily=Helvetica;fontSize=20;sketch=1;curveFitting=1;jiggle=2;" parent="1" vertex="1">
                    <mxGeometry x="515" y="1974" width="50" height="50" as="geometry"/>
                </mxCell>
                <mxCell id="274" value="" style="rounded=0;whiteSpace=wrap;html=1;hachureGap=4;fontFamily=Helvetica;fontSize=20;sketch=1;curveFitting=1;jiggle=2;" parent="1" vertex="1">
                    <mxGeometry x="565" y="1974" width="50" height="50" as="geometry"/>
                </mxCell>
                <mxCell id="275" value="" style="rounded=0;whiteSpace=wrap;html=1;hachureGap=4;fontFamily=Helvetica;fontSize=20;sketch=1;curveFitting=1;jiggle=2;" parent="1" vertex="1">
                    <mxGeometry x="615" y="1974" width="50" height="50" as="geometry"/>
                </mxCell>
                <mxCell id="276" value="" style="rounded=0;whiteSpace=wrap;html=1;hachureGap=4;fontFamily=Helvetica;fontSize=20;sketch=1;curveFitting=1;jiggle=2;" parent="1" vertex="1">
                    <mxGeometry x="665" y="1974" width="50" height="50" as="geometry"/>
                </mxCell>
                <mxCell id="277" value="7" style="text;html=1;align=center;verticalAlign=middle;resizable=0;points=[];autosize=1;strokeColor=none;fillColor=none;fontSize=14;fontFamily=Helvetica;sketch=1;hachureGap=4;jiggle=2;curveFitting=1;" parent="1" vertex="1">
                    <mxGeometry x="476" y="1945" width="26" height="29" as="geometry"/>
                </mxCell>
                <mxCell id="278" value="8" style="text;html=1;align=center;verticalAlign=middle;resizable=0;points=[];autosize=1;strokeColor=none;fillColor=none;fontSize=14;fontFamily=Helvetica;sketch=1;hachureGap=4;jiggle=2;curveFitting=1;" parent="1" vertex="1">
                    <mxGeometry x="526" y="1945" width="26" height="29" as="geometry"/>
                </mxCell>
                <mxCell id="279" value="9" style="text;html=1;align=center;verticalAlign=middle;resizable=0;points=[];autosize=1;strokeColor=none;fillColor=none;fontSize=14;fontFamily=Helvetica;sketch=1;hachureGap=4;jiggle=2;curveFitting=1;" parent="1" vertex="1">
                    <mxGeometry x="576" y="1945" width="26" height="29" as="geometry"/>
                </mxCell>
                <mxCell id="280" value="10" style="text;html=1;align=center;verticalAlign=middle;resizable=0;points=[];autosize=1;strokeColor=none;fillColor=none;fontSize=14;fontFamily=Helvetica;sketch=1;hachureGap=4;jiggle=2;curveFitting=1;" parent="1" vertex="1">
                    <mxGeometry x="622" y="1945" width="34" height="29" as="geometry"/>
                </mxCell>
                <mxCell id="281" value="11" style="text;html=1;align=center;verticalAlign=middle;resizable=0;points=[];autosize=1;strokeColor=none;fillColor=none;fontSize=14;fontFamily=Helvetica;sketch=1;hachureGap=4;jiggle=2;curveFitting=1;" parent="1" vertex="1">
                    <mxGeometry x="673" y="1945" width="33" height="29" as="geometry"/>
                </mxCell>
                <mxCell id="282" value="" style="rounded=0;whiteSpace=wrap;html=1;hachureGap=4;fontFamily=Helvetica;fontSize=20;sketch=1;curveFitting=1;jiggle=2;" parent="1" vertex="1">
                    <mxGeometry x="715" y="1974" width="50" height="50" as="geometry"/>
                </mxCell>
                <mxCell id="283" value="41" style="rounded=0;whiteSpace=wrap;html=1;hachureGap=4;fontFamily=Helvetica;fontSize=20;sketch=1;curveFitting=1;jiggle=2;" parent="1" vertex="1">
                    <mxGeometry x="765" y="1974" width="50" height="50" as="geometry"/>
                </mxCell>
                <mxCell id="284" value="12" style="text;html=1;align=center;verticalAlign=middle;resizable=0;points=[];autosize=1;strokeColor=none;fillColor=none;fontSize=14;fontFamily=Helvetica;sketch=1;hachureGap=4;jiggle=2;curveFitting=1;" parent="1" vertex="1">
                    <mxGeometry x="723" y="1945" width="34" height="29" as="geometry"/>
                </mxCell>
                <mxCell id="285" value="13" style="text;html=1;align=center;verticalAlign=middle;resizable=0;points=[];autosize=1;strokeColor=none;fillColor=none;fontSize=14;fontFamily=Helvetica;sketch=1;hachureGap=4;jiggle=2;curveFitting=1;" parent="1" vertex="1">
                    <mxGeometry x="773" y="1945" width="34" height="29" as="geometry"/>
                </mxCell>
                <mxCell id="286" value="43" style="rounded=0;whiteSpace=wrap;html=1;hachureGap=4;fontFamily=Helvetica;fontSize=20;sketch=1;curveFitting=1;jiggle=2;" parent="1" vertex="1">
                    <mxGeometry x="815" y="1974" width="50" height="50" as="geometry"/>
                </mxCell>
                <mxCell id="287" value="14" style="text;html=1;align=center;verticalAlign=middle;resizable=0;points=[];autosize=1;strokeColor=none;fillColor=none;fontSize=14;fontFamily=Helvetica;sketch=1;hachureGap=4;jiggle=2;curveFitting=1;" parent="1" vertex="1">
                    <mxGeometry x="823" y="1945" width="34" height="29" as="geometry"/>
                </mxCell>
                <mxCell id="288" value="1" style="text;html=1;strokeColor=none;fillColor=none;align=center;verticalAlign=middle;whiteSpace=wrap;rounded=0;dashed=1;sketch=1;hachureGap=4;jiggle=2;curveFitting=1;fontFamily=Helvetica;fontSize=14;opacity=50;" parent="1" vertex="1">
                    <mxGeometry x="339" y="1664" width="24" height="24" as="geometry"/>
                </mxCell>
                <mxCell id="295" value="索引为 i 的节点，其左子节点索引为 2×i+1 ，其右子节点索引为 2×i+2" style="text;html=1;strokeColor=none;fillColor=none;align=center;verticalAlign=middle;whiteSpace=wrap;rounded=0;dashed=1;sketch=1;hachureGap=4;jiggle=2;curveFitting=1;fontFamily=Helvetica;fontSize=20;opacity=50;" parent="1" vertex="1">
                    <mxGeometry x="148" y="2030" width="684" height="30" as="geometry"/>
                </mxCell>
                <mxCell id="296" style="edgeStyle=none;html=1;entryX=0.5;entryY=0;entryDx=0;entryDy=0;fontFamily=Helvetica;fontSize=16;sketch=1;curveFitting=1;jiggle=2;" parent="1" target="341" edge="1">
                    <mxGeometry relative="1" as="geometry">
                        <mxPoint x="1300" y="1630" as="sourcePoint"/>
                        <mxPoint x="1203.4" y="1691.7999999999997" as="targetPoint"/>
                    </mxGeometry>
                </mxCell>
                <mxCell id="297" style="edgeStyle=none;html=1;entryX=0.5;entryY=0;entryDx=0;entryDy=0;fontFamily=Helvetica;fontSize=16;sketch=1;curveFitting=1;jiggle=2;" parent="1" target="342" edge="1">
                    <mxGeometry relative="1" as="geometry">
                        <mxPoint x="1365" y="1630" as="sourcePoint"/>
                        <mxPoint x="1475.4499999999998" y="1690.15" as="targetPoint"/>
                    </mxGeometry>
                </mxCell>
                <mxCell id="299" style="edgeStyle=none;html=1;entryX=0.5;entryY=0;entryDx=0;entryDy=0;fontFamily=Helvetica;fontSize=16;sketch=1;curveFitting=1;jiggle=2;" parent="1" target="344" edge="1">
                    <mxGeometry relative="1" as="geometry">
                        <mxPoint x="1221" y="1712" as="sourcePoint"/>
                        <mxPoint x="1240.35" y="1769.9499999999998" as="targetPoint"/>
                    </mxGeometry>
                </mxCell>
                <mxCell id="300" style="edgeStyle=none;html=1;entryX=0.5;entryY=0;entryDx=0;entryDy=0;fontFamily=Helvetica;fontSize=16;sketch=1;curveFitting=1;jiggle=2;" parent="1" target="343" edge="1">
                    <mxGeometry relative="1" as="geometry">
                        <mxPoint x="1152" y="1713" as="sourcePoint"/>
                        <mxPoint x="1118.2499999999998" y="1772.15" as="targetPoint"/>
                    </mxGeometry>
                </mxCell>
                <mxCell id="302" style="edgeStyle=none;html=1;fontFamily=Helvetica;fontSize=16;sketch=1;curveFitting=1;jiggle=2;entryX=0.5;entryY=0;entryDx=0;entryDy=0;" parent="1" target="347" edge="1">
                    <mxGeometry relative="1" as="geometry">
                        <mxPoint x="1556.4430757558152" y="1768.6752378477422" as="targetPoint"/>
                        <mxPoint x="1518" y="1715" as="sourcePoint"/>
                    </mxGeometry>
                </mxCell>
                <mxCell id="305" style="edgeStyle=none;hachureGap=4;html=1;fontFamily=Architects Daughter;fontSource=https%3A%2F%2Ffonts.googleapis.com%2Fcss%3Ffamily%3DArchitects%2BDaughter;fontSize=16;sketch=1;curveFitting=1;jiggle=2;entryX=0.5;entryY=0;entryDx=0;entryDy=0;" parent="1" target="345" edge="1">
                    <mxGeometry relative="1" as="geometry">
                        <mxPoint x="1080" y="1796" as="sourcePoint"/>
                        <mxPoint x="1073.7550478328908" y="1853.498633653127" as="targetPoint"/>
                    </mxGeometry>
                </mxCell>
                <mxCell id="306" style="edgeStyle=none;hachureGap=4;html=1;entryX=0.5;entryY=0;entryDx=0;entryDy=0;fontFamily=Architects Daughter;fontSource=https%3A%2F%2Ffonts.googleapis.com%2Fcss%3Ffamily%3DArchitects%2BDaughter;fontSize=16;sketch=1;curveFitting=1;jiggle=2;" parent="1" target="346" edge="1">
                    <mxGeometry relative="1" as="geometry">
                        <mxPoint x="1146" y="1794" as="sourcePoint"/>
                        <mxPoint x="1138.2" y="1852.9" as="targetPoint"/>
                    </mxGeometry>
                </mxCell>
                <mxCell id="309" value="" style="edgeStyle=none;hachureGap=4;html=1;fontFamily=Architects Daughter;fontSource=https%3A%2F%2Ffonts.googleapis.com%2Fcss%3Ffamily%3DArchitects%2BDaughter;fontSize=16;sketch=1;curveFitting=1;jiggle=2;entryX=0.5;entryY=0;entryDx=0;entryDy=0;" parent="1" target="349" edge="1">
                    <mxGeometry relative="1" as="geometry">
                        <mxPoint x="1598" y="1796" as="sourcePoint"/>
                        <mxPoint x="1608.4874262690892" y="1853.3566292222085" as="targetPoint"/>
                    </mxGeometry>
                </mxCell>
                <mxCell id="310" style="edgeStyle=none;hachureGap=4;html=1;entryX=0.5;entryY=0;entryDx=0;entryDy=0;fontFamily=Architects Daughter;fontSource=https%3A%2F%2Ffonts.googleapis.com%2Fcss%3Ffamily%3DArchitects%2BDaughter;fontSize=16;sketch=1;curveFitting=1;jiggle=2;" parent="1" target="350" edge="1">
                    <mxGeometry relative="1" as="geometry">
                        <mxPoint x="1532" y="1796" as="sourcePoint"/>
                        <mxPoint x="1538.5" y="1850.5" as="targetPoint"/>
                    </mxGeometry>
                </mxCell>
                <mxCell id="340" value="2" style="shape=process;whiteSpace=wrap;html=1;backgroundOutline=1;sketch=1;hachureGap=4;jiggle=2;curveFitting=1;fontFamily=Helvetica;fontSize=20;fillColor=none;size=0.2954329332179297;" parent="1" vertex="1">
                    <mxGeometry x="1283" y="1609.5" width="98" height="39" as="geometry"/>
                </mxCell>
                <mxCell id="341" value="3" style="shape=process;whiteSpace=wrap;html=1;backgroundOutline=1;sketch=1;hachureGap=4;jiggle=2;curveFitting=1;fontFamily=Helvetica;fontSize=20;fillColor=none;size=0.2954329332179297;" parent="1" vertex="1">
                    <mxGeometry x="1138" y="1693.5" width="98" height="39" as="geometry"/>
                </mxCell>
                <mxCell id="342" value="5" style="shape=process;whiteSpace=wrap;html=1;backgroundOutline=1;sketch=1;hachureGap=4;jiggle=2;curveFitting=1;fontFamily=Helvetica;fontSize=20;fillColor=none;size=0.2954329332179297;" parent="1" vertex="1">
                    <mxGeometry x="1435" y="1693.5" width="98" height="39" as="geometry"/>
                </mxCell>
                <mxCell id="343" value="7" style="shape=process;whiteSpace=wrap;html=1;backgroundOutline=1;sketch=1;hachureGap=4;jiggle=2;curveFitting=1;fontFamily=Helvetica;fontSize=20;fillColor=none;size=0.2954329332179297;" parent="1" vertex="1">
                    <mxGeometry x="1065" y="1774.5" width="98" height="39" as="geometry"/>
                </mxCell>
                <mxCell id="344" value="11" style="shape=process;whiteSpace=wrap;html=1;backgroundOutline=1;sketch=1;hachureGap=4;jiggle=2;curveFitting=1;fontFamily=Helvetica;fontSize=20;fillColor=none;size=0.2954329332179297;" parent="1" vertex="1">
                    <mxGeometry x="1205" y="1775" width="98" height="39" as="geometry"/>
                </mxCell>
                <mxCell id="345" value="19" style="shape=process;whiteSpace=wrap;html=1;backgroundOutline=1;sketch=1;hachureGap=4;jiggle=2;curveFitting=1;fontFamily=Helvetica;fontSize=20;fillColor=none;size=0.2954329332179297;" parent="1" vertex="1">
                    <mxGeometry x="996" y="1861" width="98" height="39" as="geometry"/>
                </mxCell>
                <mxCell id="346" value="23" style="shape=process;whiteSpace=wrap;html=1;backgroundOutline=1;sketch=1;hachureGap=4;jiggle=2;curveFitting=1;fontFamily=Helvetica;fontSize=20;fillColor=none;size=0.2954329332179297;" parent="1" vertex="1">
                    <mxGeometry x="1135" y="1861" width="98" height="39" as="geometry"/>
                </mxCell>
                <mxCell id="347" value="17" style="shape=process;whiteSpace=wrap;html=1;backgroundOutline=1;sketch=1;hachureGap=4;jiggle=2;curveFitting=1;fontFamily=Helvetica;fontSize=20;fillColor=none;size=0.2954329332179297;" parent="1" vertex="1">
                    <mxGeometry x="1516" y="1775" width="98" height="39" as="geometry"/>
                </mxCell>
                <mxCell id="349" value="43" style="shape=process;whiteSpace=wrap;html=1;backgroundOutline=1;sketch=1;hachureGap=4;jiggle=2;curveFitting=1;fontFamily=Helvetica;fontSize=20;fillColor=none;size=0.2954329332179297;" parent="1" vertex="1">
                    <mxGeometry x="1588" y="1861" width="98" height="39" as="geometry"/>
                </mxCell>
                <mxCell id="350" value="41" style="shape=process;whiteSpace=wrap;html=1;backgroundOutline=1;sketch=1;hachureGap=4;jiggle=2;curveFitting=1;fontFamily=Helvetica;fontSize=20;fillColor=none;size=0.2954329332179297;" parent="1" vertex="1">
                    <mxGeometry x="1451" y="1861" width="98" height="39" as="geometry"/>
                </mxCell>
                <mxCell id="351" style="edgeStyle=none;html=1;entryX=0.728;entryY=0.076;entryDx=0;entryDy=0;entryPerimeter=0;fontFamily=Helvetica;fontSize=16;sketch=1;curveFitting=1;jiggle=2;" parent="1" source="353" target="356" edge="1">
                    <mxGeometry relative="1" as="geometry"/>
                </mxCell>
                <mxCell id="352" style="edgeStyle=none;html=1;entryX=0.309;entryY=0.043;entryDx=0;entryDy=0;entryPerimeter=0;fontFamily=Helvetica;fontSize=16;sketch=1;curveFitting=1;jiggle=2;" parent="1" source="353" target="359" edge="1">
                    <mxGeometry relative="1" as="geometry"/>
                </mxCell>
                <mxCell id="353" value="2" style="ellipse;whiteSpace=wrap;html=1;aspect=fixed;fontFamily=Helvetica;fontSize=16;sketch=1;curveFitting=1;jiggle=2;" parent="1" vertex="1">
                    <mxGeometry x="382" y="2213" width="50" height="50" as="geometry"/>
                </mxCell>
                <mxCell id="355" style="edgeStyle=none;html=1;entryX=0.685;entryY=0.063;entryDx=0;entryDy=0;fontFamily=Helvetica;fontSize=16;entryPerimeter=0;sketch=1;curveFitting=1;jiggle=2;" parent="1" source="356" target="362" edge="1">
                    <mxGeometry relative="1" as="geometry"/>
                </mxCell>
                <mxCell id="395" style="edgeStyle=none;sketch=1;hachureGap=4;jiggle=2;curveFitting=1;html=1;entryX=0;entryY=0;entryDx=0;entryDy=0;fontFamily=Helvetica;fontSize=20;endArrow=classic;endFill=1;" parent="1" source="356" target="366" edge="1">
                    <mxGeometry relative="1" as="geometry"/>
                </mxCell>
                <mxCell id="356" value="3" style="ellipse;whiteSpace=wrap;html=1;aspect=fixed;fontFamily=Helvetica;fontSize=16;sketch=1;curveFitting=1;jiggle=2;" parent="1" vertex="1">
                    <mxGeometry x="239" y="2297" width="50" height="50" as="geometry"/>
                </mxCell>
                <mxCell id="359" value="5" style="ellipse;whiteSpace=wrap;html=1;aspect=fixed;fontFamily=Helvetica;fontSize=16;sketch=1;curveFitting=1;jiggle=2;" parent="1" vertex="1">
                    <mxGeometry x="539" y="2297" width="50" height="50" as="geometry"/>
                </mxCell>
                <mxCell id="360" style="edgeStyle=none;hachureGap=4;html=1;fontFamily=Architects Daughter;fontSource=https%3A%2F%2Ffonts.googleapis.com%2Fcss%3Ffamily%3DArchitects%2BDaughter;fontSize=16;sketch=1;curveFitting=1;jiggle=2;" parent="1" source="362" target="367" edge="1">
                    <mxGeometry relative="1" as="geometry"/>
                </mxCell>
                <mxCell id="361" style="edgeStyle=none;hachureGap=4;html=1;entryX=0.284;entryY=0.058;entryDx=0;entryDy=0;entryPerimeter=0;fontFamily=Architects Daughter;fontSource=https%3A%2F%2Ffonts.googleapis.com%2Fcss%3Ffamily%3DArchitects%2BDaughter;fontSize=16;sketch=1;curveFitting=1;jiggle=2;" parent="1" source="362" target="368" edge="1">
                    <mxGeometry relative="1" as="geometry"/>
                </mxCell>
                <mxCell id="362" value="7" style="ellipse;whiteSpace=wrap;html=1;aspect=fixed;fontFamily=Helvetica;fontSize=16;sketch=1;curveFitting=1;jiggle=2;" parent="1" vertex="1">
                    <mxGeometry x="163" y="2378" width="50" height="50" as="geometry"/>
                </mxCell>
                <mxCell id="365" style="edgeStyle=none;hachureGap=4;html=1;entryX=0.71;entryY=0.01;entryDx=0;entryDy=0;fontFamily=Architects Daughter;fontSource=https%3A%2F%2Ffonts.googleapis.com%2Fcss%3Ffamily%3DArchitects%2BDaughter;fontSize=16;sketch=1;curveFitting=1;jiggle=2;entryPerimeter=0;" parent="1" source="366" target="369" edge="1">
                    <mxGeometry relative="1" as="geometry"/>
                </mxCell>
                <mxCell id="366" value="11" style="ellipse;whiteSpace=wrap;html=1;aspect=fixed;fontFamily=Helvetica;fontSize=16;sketch=1;curveFitting=1;jiggle=2;" parent="1" vertex="1">
                    <mxGeometry x="332" y="2373" width="50" height="50" as="geometry"/>
                </mxCell>
                <mxCell id="367" value="19" style="ellipse;whiteSpace=wrap;html=1;aspect=fixed;fontFamily=Helvetica;fontSize=16;sketch=1;curveFitting=1;jiggle=2;" parent="1" vertex="1">
                    <mxGeometry x="115" y="2459" width="50" height="50" as="geometry"/>
                </mxCell>
                <mxCell id="368" value="23" style="ellipse;whiteSpace=wrap;html=1;aspect=fixed;fontFamily=Helvetica;fontSize=16;sketch=1;curveFitting=1;jiggle=2;" parent="1" vertex="1">
                    <mxGeometry x="203" y="2459" width="50" height="50" as="geometry"/>
                </mxCell>
                <mxCell id="369" value="41" style="ellipse;whiteSpace=wrap;html=1;aspect=fixed;fontFamily=Helvetica;fontSize=16;sketch=1;curveFitting=1;jiggle=2;" parent="1" vertex="1">
                    <mxGeometry x="289" y="2459" width="50" height="50" as="geometry"/>
                </mxCell>
                <mxCell id="396" style="edgeStyle=none;html=1;entryX=0.685;entryY=0.063;entryDx=0;entryDy=0;fontFamily=Helvetica;fontSize=16;entryPerimeter=0;sketch=1;curveFitting=1;jiggle=2;" parent="1" target="398" edge="1">
                    <mxGeometry relative="1" as="geometry">
                        <mxPoint x="545.3515584593467" y="2338.6503942327263" as="sourcePoint"/>
                    </mxGeometry>
                </mxCell>
                <mxCell id="397" style="edgeStyle=none;sketch=1;hachureGap=4;jiggle=2;curveFitting=1;html=1;entryX=0;entryY=0;entryDx=0;entryDy=0;fontFamily=Helvetica;fontSize=20;endArrow=classic;endFill=1;" parent="1" target="399" edge="1">
                    <mxGeometry relative="1" as="geometry">
                        <mxPoint x="583.850138864226" y="2337.197762567923" as="sourcePoint"/>
                    </mxGeometry>
                </mxCell>
                <mxCell id="398" value="13" style="ellipse;whiteSpace=wrap;html=1;aspect=fixed;fontFamily=Helvetica;fontSize=16;sketch=1;curveFitting=1;jiggle=2;" parent="1" vertex="1">
                    <mxGeometry x="463" y="2378" width="50" height="50" as="geometry"/>
                </mxCell>
                <mxCell id="399" value="17" style="ellipse;whiteSpace=wrap;html=1;aspect=fixed;fontFamily=Helvetica;fontSize=16;sketch=1;curveFitting=1;jiggle=2;" parent="1" vertex="1">
                    <mxGeometry x="632" y="2373" width="50" height="50" as="geometry"/>
                </mxCell>
                <mxCell id="401" value="完全二叉树" style="text;html=1;align=center;verticalAlign=middle;resizable=0;points=[];autosize=1;strokeColor=none;fillColor=none;fontSize=20;fontFamily=Helvetica;sketch=1;hachureGap=4;jiggle=2;curveFitting=1;fontSource=https%3A%2F%2Ffonts.googleapis.com%2Fcss%3Ffamily%3DArchitects%2BDaughter;" parent="1" vertex="1">
                    <mxGeometry x="348" y="2166" width="118" height="36" as="geometry"/>
                </mxCell>
                <mxCell id="402" style="edgeStyle=none;html=1;entryX=0.728;entryY=0.076;entryDx=0;entryDy=0;entryPerimeter=0;fontFamily=Helvetica;fontSize=16;sketch=1;curveFitting=1;jiggle=2;" parent="1" source="404" target="407" edge="1">
                    <mxGeometry relative="1" as="geometry"/>
                </mxCell>
                <mxCell id="403" style="edgeStyle=none;html=1;entryX=0.309;entryY=0.043;entryDx=0;entryDy=0;entryPerimeter=0;fontFamily=Helvetica;fontSize=16;sketch=1;curveFitting=1;jiggle=2;" parent="1" source="404" target="408" edge="1">
                    <mxGeometry relative="1" as="geometry"/>
                </mxCell>
                <mxCell id="404" value="2" style="ellipse;whiteSpace=wrap;html=1;aspect=fixed;fontFamily=Helvetica;fontSize=16;sketch=1;curveFitting=1;jiggle=2;" parent="1" vertex="1">
                    <mxGeometry x="1066" y="2244" width="50" height="50" as="geometry"/>
                </mxCell>
                <mxCell id="405" style="edgeStyle=none;html=1;entryX=0.685;entryY=0.063;entryDx=0;entryDy=0;fontFamily=Helvetica;fontSize=16;entryPerimeter=0;sketch=1;curveFitting=1;jiggle=2;" parent="1" source="407" target="411" edge="1">
                    <mxGeometry relative="1" as="geometry"/>
                </mxCell>
                <mxCell id="406" style="edgeStyle=none;sketch=1;hachureGap=4;jiggle=2;curveFitting=1;html=1;entryX=0;entryY=0;entryDx=0;entryDy=0;fontFamily=Helvetica;fontSize=20;endArrow=classic;endFill=1;" parent="1" source="407" target="413" edge="1">
                    <mxGeometry relative="1" as="geometry"/>
                </mxCell>
                <mxCell id="407" value="3" style="ellipse;whiteSpace=wrap;html=1;aspect=fixed;fontFamily=Helvetica;fontSize=16;sketch=1;curveFitting=1;jiggle=2;" parent="1" vertex="1">
                    <mxGeometry x="923" y="2328" width="50" height="50" as="geometry"/>
                </mxCell>
                <mxCell id="408" value="5" style="ellipse;whiteSpace=wrap;html=1;aspect=fixed;fontFamily=Helvetica;fontSize=16;sketch=1;curveFitting=1;jiggle=2;" parent="1" vertex="1">
                    <mxGeometry x="1223" y="2328" width="50" height="50" as="geometry"/>
                </mxCell>
                <mxCell id="411" value="7" style="ellipse;whiteSpace=wrap;html=1;aspect=fixed;fontFamily=Helvetica;fontSize=16;sketch=1;curveFitting=1;jiggle=2;" parent="1" vertex="1">
                    <mxGeometry x="847" y="2409" width="50" height="50" as="geometry"/>
                </mxCell>
                <mxCell id="413" value="11" style="ellipse;whiteSpace=wrap;html=1;aspect=fixed;fontFamily=Helvetica;fontSize=16;sketch=1;curveFitting=1;jiggle=2;" parent="1" vertex="1">
                    <mxGeometry x="1016" y="2404" width="50" height="50" as="geometry"/>
                </mxCell>
                <mxCell id="417" style="edgeStyle=none;html=1;entryX=0.685;entryY=0.063;entryDx=0;entryDy=0;fontFamily=Helvetica;fontSize=16;entryPerimeter=0;sketch=1;curveFitting=1;jiggle=2;" parent="1" target="419" edge="1">
                    <mxGeometry relative="1" as="geometry">
                        <mxPoint x="1229.3515584593467" y="2369.6503942327263" as="sourcePoint"/>
                    </mxGeometry>
                </mxCell>
                <mxCell id="418" style="edgeStyle=none;sketch=1;hachureGap=4;jiggle=2;curveFitting=1;html=1;entryX=0;entryY=0;entryDx=0;entryDy=0;fontFamily=Helvetica;fontSize=20;endArrow=classic;endFill=1;" parent="1" target="420" edge="1">
                    <mxGeometry relative="1" as="geometry">
                        <mxPoint x="1267.850138864226" y="2368.197762567923" as="sourcePoint"/>
                    </mxGeometry>
                </mxCell>
                <mxCell id="419" value="13" style="ellipse;whiteSpace=wrap;html=1;aspect=fixed;fontFamily=Helvetica;fontSize=16;sketch=1;curveFitting=1;jiggle=2;" parent="1" vertex="1">
                    <mxGeometry x="1147" y="2409" width="50" height="50" as="geometry"/>
                </mxCell>
                <mxCell id="420" value="17" style="ellipse;whiteSpace=wrap;html=1;aspect=fixed;fontFamily=Helvetica;fontSize=16;sketch=1;curveFitting=1;jiggle=2;" parent="1" vertex="1">
                    <mxGeometry x="1316" y="2404" width="50" height="50" as="geometry"/>
                </mxCell>
                <mxCell id="421" value="满二叉树" style="text;html=1;align=center;verticalAlign=middle;resizable=0;points=[];autosize=1;strokeColor=none;fillColor=none;fontSize=20;fontFamily=Helvetica;sketch=1;hachureGap=4;jiggle=2;curveFitting=1;fontSource=https%3A%2F%2Ffonts.googleapis.com%2Fcss%3Ffamily%3DArchitects%2BDaughter;" parent="1" vertex="1">
                    <mxGeometry x="1042" y="2197" width="98" height="36" as="geometry"/>
                </mxCell>
                <mxCell id="426" style="edgeStyle=none;html=1;entryX=0.728;entryY=0.076;entryDx=0;entryDy=0;entryPerimeter=0;fontFamily=Helvetica;fontSize=16;sketch=1;curveFitting=1;jiggle=2;" parent="1" source="428" target="431" edge="1">
                    <mxGeometry relative="1" as="geometry"/>
                </mxCell>
                <mxCell id="427" style="edgeStyle=none;html=1;entryX=0.309;entryY=0.043;entryDx=0;entryDy=0;entryPerimeter=0;fontFamily=Helvetica;fontSize=16;sketch=1;curveFitting=1;jiggle=2;" parent="1" source="428" target="432" edge="1">
                    <mxGeometry relative="1" as="geometry"/>
                </mxCell>
                <mxCell id="428" value="2" style="ellipse;whiteSpace=wrap;html=1;aspect=fixed;fontFamily=Helvetica;fontSize=16;sketch=1;curveFitting=1;jiggle=2;" parent="1" vertex="1">
                    <mxGeometry x="1844" y="2257" width="50" height="50" as="geometry"/>
                </mxCell>
                <mxCell id="429" style="edgeStyle=none;html=1;entryX=0.685;entryY=0.063;entryDx=0;entryDy=0;fontFamily=Helvetica;fontSize=16;entryPerimeter=0;sketch=1;curveFitting=1;jiggle=2;" parent="1" source="431" target="433" edge="1">
                    <mxGeometry relative="1" as="geometry"/>
                </mxCell>
                <mxCell id="431" value="3" style="ellipse;whiteSpace=wrap;html=1;aspect=fixed;fontFamily=Helvetica;fontSize=16;sketch=1;curveFitting=1;jiggle=2;" parent="1" vertex="1">
                    <mxGeometry x="1701" y="2341" width="50" height="50" as="geometry"/>
                </mxCell>
                <mxCell id="432" value="5" style="ellipse;whiteSpace=wrap;html=1;aspect=fixed;fontFamily=Helvetica;fontSize=16;sketch=1;curveFitting=1;jiggle=2;" parent="1" vertex="1">
                    <mxGeometry x="2001" y="2341" width="50" height="50" as="geometry"/>
                </mxCell>
                <mxCell id="433" value="7" style="ellipse;whiteSpace=wrap;html=1;aspect=fixed;fontFamily=Helvetica;fontSize=16;sketch=1;curveFitting=1;jiggle=2;" parent="1" vertex="1">
                    <mxGeometry x="1625" y="2422" width="50" height="50" as="geometry"/>
                </mxCell>
                <mxCell id="435" style="edgeStyle=none;html=1;entryX=0.685;entryY=0.063;entryDx=0;entryDy=0;fontFamily=Helvetica;fontSize=16;entryPerimeter=0;sketch=1;curveFitting=1;jiggle=2;" parent="1" target="437" edge="1">
                    <mxGeometry relative="1" as="geometry">
                        <mxPoint x="2007.351558459347" y="2382.6503942327263" as="sourcePoint"/>
                    </mxGeometry>
                </mxCell>
                <mxCell id="436" style="edgeStyle=none;sketch=1;hachureGap=4;jiggle=2;curveFitting=1;html=1;entryX=0;entryY=0;entryDx=0;entryDy=0;fontFamily=Helvetica;fontSize=20;endArrow=classic;endFill=1;" parent="1" target="438" edge="1">
                    <mxGeometry relative="1" as="geometry">
                        <mxPoint x="2045.8501388642262" y="2381.197762567923" as="sourcePoint"/>
                    </mxGeometry>
                </mxCell>
                <mxCell id="437" value="13" style="ellipse;whiteSpace=wrap;html=1;aspect=fixed;fontFamily=Helvetica;fontSize=16;sketch=1;curveFitting=1;jiggle=2;" parent="1" vertex="1">
                    <mxGeometry x="1925" y="2422" width="50" height="50" as="geometry"/>
                </mxCell>
                <mxCell id="438" value="17" style="ellipse;whiteSpace=wrap;html=1;aspect=fixed;fontFamily=Helvetica;fontSize=16;sketch=1;curveFitting=1;jiggle=2;" parent="1" vertex="1">
                    <mxGeometry x="2094" y="2417" width="50" height="50" as="geometry"/>
                </mxCell>
                <mxCell id="439" value="平衡二叉树" style="text;html=1;align=center;verticalAlign=middle;resizable=0;points=[];autosize=1;strokeColor=none;fillColor=none;fontSize=20;fontFamily=Helvetica;sketch=1;hachureGap=4;jiggle=2;curveFitting=1;fontSource=https%3A%2F%2Ffonts.googleapis.com%2Fcss%3Ffamily%3DArchitects%2BDaughter;" parent="1" vertex="1">
                    <mxGeometry x="1810" y="2210" width="118" height="36" as="geometry"/>
                </mxCell>
                <mxCell id="440" style="edgeStyle=none;hachureGap=4;html=1;fontFamily=Architects Daughter;fontSource=https%3A%2F%2Ffonts.googleapis.com%2Fcss%3Ffamily%3DArchitects%2BDaughter;fontSize=16;sketch=1;curveFitting=1;jiggle=2;" parent="1" target="442" edge="1">
                    <mxGeometry relative="1" as="geometry">
                        <mxPoint x="1941.1376061143483" y="2468.997323142753" as="sourcePoint"/>
                    </mxGeometry>
                </mxCell>
                <mxCell id="441" style="edgeStyle=none;hachureGap=4;html=1;entryX=0.284;entryY=0.058;entryDx=0;entryDy=0;entryPerimeter=0;fontFamily=Architects Daughter;fontSource=https%3A%2F%2Ffonts.googleapis.com%2Fcss%3Ffamily%3DArchitects%2BDaughter;fontSize=16;sketch=1;curveFitting=1;jiggle=2;" parent="1" target="443" edge="1">
                    <mxGeometry relative="1" as="geometry">
                        <mxPoint x="1964.9225990684163" y="2470.047703964387" as="sourcePoint"/>
                    </mxGeometry>
                </mxCell>
                <mxCell id="442" value="19" style="ellipse;whiteSpace=wrap;html=1;aspect=fixed;fontFamily=Helvetica;fontSize=16;sketch=1;curveFitting=1;jiggle=2;" parent="1" vertex="1">
                    <mxGeometry x="1881" y="2503.56" width="50" height="50" as="geometry"/>
                </mxCell>
                <mxCell id="443" value="23" style="ellipse;whiteSpace=wrap;html=1;aspect=fixed;fontFamily=Helvetica;fontSize=16;sketch=1;curveFitting=1;jiggle=2;" parent="1" vertex="1">
                    <mxGeometry x="1969" y="2503.56" width="50" height="50" as="geometry"/>
                </mxCell>
                <mxCell id="444" value="左右子树高度差 1" style="text;html=1;align=center;verticalAlign=middle;resizable=0;points=[];autosize=1;strokeColor=none;fillColor=none;fontSize=14;fontFamily=Helvetica;sketch=1;hachureGap=4;jiggle=2;curveFitting=1;fontSource=https%3A%2F%2Ffonts.googleapis.com%2Fcss%3Ffamily%3DArchitects%2BDaughter;" parent="1" vertex="1">
                    <mxGeometry x="1716" y="2267.5" width="128" height="29" as="geometry"/>
                </mxCell>
                <mxCell id="445" value="左右子树高度差 1" style="text;html=1;align=center;verticalAlign=middle;resizable=0;points=[];autosize=1;strokeColor=none;fillColor=none;fontSize=14;fontFamily=Helvetica;sketch=1;hachureGap=4;jiggle=2;curveFitting=1;fontSource=https%3A%2F%2Ffonts.googleapis.com%2Fcss%3Ffamily%3DArchitects%2BDaughter;" parent="1" vertex="1">
                    <mxGeometry x="1573" y="2351.5" width="128" height="29" as="geometry"/>
                </mxCell>
                <mxCell id="446" value="左右子树高度差 0" style="text;html=1;align=center;verticalAlign=middle;resizable=0;points=[];autosize=1;strokeColor=none;fillColor=none;fontSize=14;fontFamily=Helvetica;sketch=1;hachureGap=4;jiggle=2;curveFitting=1;fontSource=https%3A%2F%2Ffonts.googleapis.com%2Fcss%3Ffamily%3DArchitects%2BDaughter;" parent="1" vertex="1">
                    <mxGeometry x="1497" y="2432.5" width="128" height="29" as="geometry"/>
                </mxCell>
                <mxCell id="447" value="左右子树高度差 1" style="text;html=1;align=center;verticalAlign=middle;resizable=0;points=[];autosize=1;strokeColor=none;fillColor=none;fontSize=14;fontFamily=Helvetica;sketch=1;hachureGap=4;jiggle=2;curveFitting=1;fontSource=https%3A%2F%2Ffonts.googleapis.com%2Fcss%3Ffamily%3DArchitects%2BDaughter;" parent="1" vertex="1">
                    <mxGeometry x="1873" y="2351.5" width="128" height="29" as="geometry"/>
                </mxCell>
                <mxCell id="448" value="左右子树高度差 0" style="text;html=1;align=center;verticalAlign=middle;resizable=0;points=[];autosize=1;strokeColor=none;fillColor=none;fontSize=14;fontFamily=Helvetica;sketch=1;hachureGap=4;jiggle=2;curveFitting=1;fontSource=https%3A%2F%2Ffonts.googleapis.com%2Fcss%3Ffamily%3DArchitects%2BDaughter;" parent="1" vertex="1">
                    <mxGeometry x="1797" y="2432.5" width="128" height="29" as="geometry"/>
                </mxCell>
                <mxCell id="449" value="左右子树高度差 0" style="text;html=1;align=center;verticalAlign=middle;resizable=0;points=[];autosize=1;strokeColor=none;fillColor=none;fontSize=14;fontFamily=Helvetica;sketch=1;hachureGap=4;jiggle=2;curveFitting=1;fontSource=https%3A%2F%2Ffonts.googleapis.com%2Fcss%3Ffamily%3DArchitects%2BDaughter;" parent="1" vertex="1">
                    <mxGeometry x="2144" y="2430" width="128" height="29" as="geometry"/>
                </mxCell>
                <mxCell id="450" value="左右子树高度差 0" style="text;html=1;align=center;verticalAlign=middle;resizable=0;points=[];autosize=1;strokeColor=none;fillColor=none;fontSize=14;fontFamily=Helvetica;sketch=1;hachureGap=4;jiggle=2;curveFitting=1;fontSource=https%3A%2F%2Ffonts.googleapis.com%2Fcss%3Ffamily%3DArchitects%2BDaughter;" parent="1" vertex="1">
                    <mxGeometry x="1753" y="2514.06" width="128" height="29" as="geometry"/>
                </mxCell>
                <mxCell id="451" value="左右子树高度差 0" style="text;html=1;align=center;verticalAlign=middle;resizable=0;points=[];autosize=1;strokeColor=none;fillColor=none;fontSize=14;fontFamily=Helvetica;sketch=1;hachureGap=4;jiggle=2;curveFitting=1;fontSource=https%3A%2F%2Ffonts.googleapis.com%2Fcss%3Ffamily%3DArchitects%2BDaughter;" parent="1" vertex="1">
                    <mxGeometry x="2019" y="2514.06" width="128" height="29" as="geometry"/>
                </mxCell>
                <mxCell id="452" style="edgeStyle=none;html=1;entryX=0.728;entryY=0.076;entryDx=0;entryDy=0;entryPerimeter=0;fontFamily=Helvetica;fontSize=16;sketch=1;curveFitting=1;jiggle=2;" parent="1" source="454" target="456" edge="1">
                    <mxGeometry relative="1" as="geometry"/>
                </mxCell>
                <mxCell id="453" style="edgeStyle=none;html=1;entryX=0.309;entryY=0.043;entryDx=0;entryDy=0;entryPerimeter=0;fontFamily=Helvetica;fontSize=16;sketch=1;curveFitting=1;jiggle=2;" parent="1" source="454" target="457" edge="1">
                    <mxGeometry relative="1" as="geometry"/>
                </mxCell>
                <mxCell id="454" value="11" style="ellipse;whiteSpace=wrap;html=1;aspect=fixed;fontFamily=Helvetica;fontSize=16;sketch=1;curveFitting=1;jiggle=2;" parent="1" vertex="1">
                    <mxGeometry x="2615" y="2252" width="50" height="50" as="geometry"/>
                </mxCell>
                <mxCell id="455" style="edgeStyle=none;html=1;fontFamily=Helvetica;fontSize=16;sketch=1;curveFitting=1;jiggle=2;entryX=1;entryY=0;entryDx=0;entryDy=0;" parent="1" source="456" target="458" edge="1">
                    <mxGeometry relative="1" as="geometry">
                        <mxPoint x="2404" y="2354" as="targetPoint"/>
                    </mxGeometry>
                </mxCell>
                <mxCell id="456" value="7" style="ellipse;whiteSpace=wrap;html=1;aspect=fixed;fontFamily=Helvetica;fontSize=16;sketch=1;curveFitting=1;jiggle=2;" parent="1" vertex="1">
                    <mxGeometry x="2472" y="2336" width="50" height="50" as="geometry"/>
                </mxCell>
                <mxCell id="457" value="29" style="ellipse;whiteSpace=wrap;html=1;aspect=fixed;fontFamily=Helvetica;fontSize=16;sketch=1;curveFitting=1;jiggle=2;" parent="1" vertex="1">
                    <mxGeometry x="2772" y="2336" width="50" height="50" as="geometry"/>
                </mxCell>
                <mxCell id="459" style="edgeStyle=none;html=1;entryX=0.685;entryY=0.063;entryDx=0;entryDy=0;fontFamily=Helvetica;fontSize=16;entryPerimeter=0;sketch=1;curveFitting=1;jiggle=2;" parent="1" target="461" edge="1">
                    <mxGeometry relative="1" as="geometry">
                        <mxPoint x="2778.3515584593465" y="2377.6503942327267" as="sourcePoint"/>
                    </mxGeometry>
                </mxCell>
                <mxCell id="460" style="edgeStyle=none;sketch=1;hachureGap=4;jiggle=2;curveFitting=1;html=1;entryX=0;entryY=0;entryDx=0;entryDy=0;fontFamily=Helvetica;fontSize=20;endArrow=classic;endFill=1;" parent="1" target="462" edge="1">
                    <mxGeometry relative="1" as="geometry">
                        <mxPoint x="2816.8501388642267" y="2376.197762567923" as="sourcePoint"/>
                    </mxGeometry>
                </mxCell>
                <mxCell id="461" value="19" style="ellipse;whiteSpace=wrap;html=1;aspect=fixed;fontFamily=Helvetica;fontSize=16;sketch=1;curveFitting=1;jiggle=2;" parent="1" vertex="1">
                    <mxGeometry x="2696" y="2417" width="50" height="50" as="geometry"/>
                </mxCell>
                <mxCell id="462" value="31" style="ellipse;whiteSpace=wrap;html=1;aspect=fixed;fontFamily=Helvetica;fontSize=16;sketch=1;curveFitting=1;jiggle=2;" parent="1" vertex="1">
                    <mxGeometry x="2856" y="2411.5" width="50" height="50" as="geometry"/>
                </mxCell>
                <mxCell id="463" value="二叉搜索树" style="text;html=1;align=center;verticalAlign=middle;resizable=0;points=[];autosize=1;strokeColor=none;fillColor=none;fontSize=20;fontFamily=Helvetica;sketch=1;hachureGap=4;jiggle=2;curveFitting=1;fontSource=https%3A%2F%2Ffonts.googleapis.com%2Fcss%3Ffamily%3DArchitects%2BDaughter;" parent="1" vertex="1">
                    <mxGeometry x="2581" y="2205" width="118" height="36" as="geometry"/>
                </mxCell>
                <mxCell id="464" style="edgeStyle=none;hachureGap=4;html=1;fontFamily=Architects Daughter;fontSource=https%3A%2F%2Ffonts.googleapis.com%2Fcss%3Ffamily%3DArchitects%2BDaughter;fontSize=16;sketch=1;curveFitting=1;jiggle=2;" parent="1" target="466" edge="1">
                    <mxGeometry relative="1" as="geometry">
                        <mxPoint x="2712.137606114348" y="2463.9973231427525" as="sourcePoint"/>
                    </mxGeometry>
                </mxCell>
                <mxCell id="465" style="edgeStyle=none;hachureGap=4;html=1;entryX=0.284;entryY=0.058;entryDx=0;entryDy=0;entryPerimeter=0;fontFamily=Architects Daughter;fontSource=https%3A%2F%2Ffonts.googleapis.com%2Fcss%3Ffamily%3DArchitects%2BDaughter;fontSize=16;sketch=1;curveFitting=1;jiggle=2;" parent="1" target="467" edge="1">
                    <mxGeometry relative="1" as="geometry">
                        <mxPoint x="2735.922599068416" y="2465.047703964387" as="sourcePoint"/>
                    </mxGeometry>
                </mxCell>
                <mxCell id="466" value="17" style="ellipse;whiteSpace=wrap;html=1;aspect=fixed;fontFamily=Helvetica;fontSize=16;sketch=1;curveFitting=1;jiggle=2;" parent="1" vertex="1">
                    <mxGeometry x="2652" y="2498.56" width="50" height="50" as="geometry"/>
                </mxCell>
                <mxCell id="467" value="23" style="ellipse;whiteSpace=wrap;html=1;aspect=fixed;fontFamily=Helvetica;fontSize=16;sketch=1;curveFitting=1;jiggle=2;" parent="1" vertex="1">
                    <mxGeometry x="2740" y="2498.56" width="50" height="50" as="geometry"/>
                </mxCell>
            </root>
        </mxGraphModel>
    </diagram>
</mxfile>